<svg version="1.2" xmlns="http://www.w3.org/2000/svg" viewBox="0 0 517 527" width="517" height="527">
	<title>5473930_2850901-ai</title>
	<defs>
		<linearGradient id="g1" x2="1" gradientUnits="userSpaceOnUse" gradientTransform="matrix(-86.923,86.923,-86.923,-86.923,914.215,320.418)">
			<stop offset="0" stop-color="#4a8be0"/>
			<stop offset="1" stop-color="#403e8f"/>
		</linearGradient>
		<linearGradient id="g2" x2="1" gradientUnits="userSpaceOnUse" gradientTransform="matrix(0,-188.612,157.815,0,169.47,348.41)">
			<stop offset="0" stop-color="#4a8be0" stop-opacity="1"/>
			<stop offset=".886" stop-color="#ffffff" stop-opacity="0"/>
		</linearGradient>
	</defs>
	<style>
		tspan { white-space:pre } 
		.t0 { font-size: 6px;line-height: 9px;fill: #403e8f;font-weight: 400;font-family: "Montserrat-Regular", "Montserrat" } 
		.s1 { fill: #403e8f } 
		.t2 { font-size: 6px;line-height: 9px;fill: #4a8be0;font-weight: 400;font-family: "Montserrat-Regular", "Montserrat" } 
		.t3 { font-size: 7px;line-height: 11px;fill: #4a8be0;font-weight: 300;font-family: "Montserrat-Light", "Montserrat" } 
		.t4 { font-size: 33px;fill: #4a8be0;font-weight: 700;font-family: "Montserrat-Bold", "Montserrat" } 
		.t5 { font-size: 20px;fill: #403e8f;font-weight: 700;font-family: "Montserrat-Bold", "Montserrat" } 
		.s6 { fill: url(#g1) } 
		.t7 { font-size: 8px;fill: #ffffff;font-weight: 700;font-family: "Montserrat-Bold", "Montserrat" } 
		.s8 { opacity: .5;fill: #4a8be0 } 
		.s9 { opacity: .3;mix-blend-mode: multiply;fill: #403e8f } 
		.s10 { fill: #2f2b6e } 
		.s11 { fill: none;stroke: #2f2b6e;stroke-linecap: round;stroke-linejoin: round;stroke-width: 5 } 
		.s12 { fill: #ffffff } 
		.s13 { opacity: .5;fill: url(#g2) } 
		.s14 { opacity: .5;fill: #82c937 } 
		.s15 { opacity: .5;fill: #ec297b } 
		.s16 { opacity: .5;fill: #26a9e0 } 
		.s17 { opacity: .5;fill: #f05a28 } 
		.s18 { opacity: .5;fill: #ffffff } 
		.s19 { fill: none;stroke: #403e8f;stroke-linecap: round;stroke-linejoin: round;stroke-width: 5 } 
		.s20 { fill: none;stroke: #403e8f;stroke-miterlimit:10 } 
		.s21 { fill: none;stroke: #4a8be0;stroke-miterlimit:10 } 
		.s22 { fill: #4a8be0 } 
		.s23 { fill: #eca0a4 } 
		.s24 { opacity: .5;mix-blend-mode: multiply;fill: #ce808b } 
		.s25 { fill: #3b2314 } 
		.s26 { opacity: .5;mix-blend-mode: multiply;fill: #4a8be0 } 
		.s27 { fill: #231f20 } 
		.s28 { fill: #c3d9e4 } 
		.s29 { opacity: .5;mix-blend-mode: multiply;fill: #403e8f } 
		.s30 { opacity: .5;mix-blend-mode: multiply;fill: #c3d9e4 } 
		.s31 { fill: #ce808b } 
		.s32 { fill: #007bb6 } 
		.t33 { font-size: 10px;fill: #403e8f;font-weight: 600;font-family: "Montserrat-SemiBold", "Montserrat" } 
		.s34 { fill: #f8fafb } 
	</style>
	<g id="BACKGROUND">
	</g>
	<g id="OBJECTS">
		<g id="&lt;Group&gt;">
			<g id="&lt;Group&gt;" style="opacity: .5;mix-blend-mode: multiply">
			</g>
			<g id="&lt;Group&gt;">
				<g id="&lt;Group&gt;">
					<text id="Home
" style="transform: matrix(2,0,0,2,477.275,-47.435)" >
						<tspan x="-10.8" y="0" class="t0" dx="0 1 1 1 1" >Home
</tspan>
					</text>
					<g id="&lt;Group&gt;">
						<path id="&lt;Path&gt;" class="s1" d="m502.9-37.8h-50c-0.3 0-0.6-0.3-0.6-0.7 0-0.3 0.3-0.6 0.6-0.6h50c0.3 0 0.6 0.3 0.6 0.6 0 0.4-0.3 0.7-0.6 0.7z"/>
					</g>
					<text id="Service
" style="opacity: .5;transform: matrix(2,0,0,2,588.174,-47.435)" >
						<tspan x="-13.3" y="0" class="t2" dx="0 1 1 1 1 1 1 1" >Service
</tspan>
					</text>
					<text id="About
" style="opacity: .5;transform: matrix(2,0,0,2,699.073,-47.435)" >
						<tspan x="-11.1" y="0" class="t2" dx="0 1 1 1 1 1" >About
</tspan>
					</text>
					<text id="Contact
" style="opacity: .5;transform: matrix(2,0,0,2,809.969,-47.435)" >
						<tspan x="-14.5" y="0" class="t2" dx="0 1 1 1 1 1 1 1" >Contact
</tspan>
					</text>
					<text id="FAQ
" style="opacity: .5;transform: matrix(2,0,0,2,920.868,-47.435)" >
						<tspan x="-7.4" y="0" class="t2" dx="0 1 1 1" >FAQ
</tspan>
					</text>
				</g>
				<text id="Lorem ipsum dolor sit amet, consectetur adipiscing" style="opacity: .5;transform: matrix(2,0,0,2,514.243,209.28)" >
					<tspan x="15" y="5.3" class="t3">Lorem ipsum dolor sit amet, consectetur adipiscing elit. </tspan>
					<tspan x="26.1" y="16.3" class="t3">Sed dolor enim, bibendum sed justo quis, accumsan </tspan>
					<tspan x="43.9" y="27.3" class="t3">eleifend mi. Morbi volutpat, dui feugiat pretium </tspan>
					<tspan x="166.5" y="38.3" class="t3">ullamcorper.
</tspan>
				</text>
				<text id="BUSINESS
" style="transform: matrix(2,0,0,2,593.906,96.728)" >
					<tspan x="0" y="0" class="t4">BUSINESS
</tspan>
				</text>
				<text id="STRATEGY
" style="transform: matrix(2,0,0,2,688.695,145.961)" >
					<tspan x="0" y="0" class="t5" dx="0 2 2 2 2 2 2 2 2" >STRATEGY
</tspan>
				</text>
				<g id="&lt;Group&gt;">
					<path id="&lt;Path&gt;" class="s6" d="m920.2 363.7h-106.3c-9 0-16.4-7.3-16.4-16.3 0-9.1 7.4-16.4 16.4-16.4h106.3c9 0 16.4 7.3 16.4 16.4 0 9-7.4 16.3-16.4 16.3z"/>
					<text id="LEARN MORE
" style="transform: matrix(2,0,0,2,813.26,353.462)" >
						<tspan x="0" y="0" class="t7">LEARN MORE
</tspan>
					</text>
				</g>
				<g id="&lt;Group&gt;">
					<path id="&lt;Path&gt;" class="s8" d="m888 452.9c0 2.6-2.1 4.7-4.7 4.7-2.6 0-4.7-2.1-4.7-4.7 0-2.6 2.1-4.7 4.7-4.7 2.6 0 4.7 2.1 4.7 4.7z"/>
					<path id="&lt;Path&gt;" class="s8" d="m912.3 452.9c0 2.6-2.1 4.7-4.7 4.7-2.6 0-4.7-2.1-4.7-4.7 0-2.6 2.1-4.7 4.7-4.7 2.6 0 4.7 2.1 4.7 4.7z"/>
					<path id="&lt;Path&gt;" class="s1" d="m936.6 452.9c0 2.6-2.1 4.7-4.7 4.7-2.6 0-4.7-2.1-4.7-4.7 0-2.6 2.1-4.7 4.7-4.7 2.6 0 4.7 2.1 4.7 4.7z"/>
				</g>
				<g id="&lt;Group&gt;">
					<path id="&lt;Path&gt;" class="s9" d="m507.1 483.4c0 4.2-108.7 7.6-242.7 7.6-134 0-242.7-3.4-242.7-7.6 0-4.2 108.7-7.6 242.7-7.6 134 0 242.7 3.4 242.7 7.6z"/>
					<g id="&lt;Group&gt;">
						<path id="&lt;Path&gt;" class="s10" d="m242.6 345.1l-19-185.4h136.2l19 185.4z"/>
						<g id="&lt;Group&gt;">
							<path id="&lt;Path&gt;" class="s10" d="m258.9 479.1l-32.5-316.9h131.2l32.5 316.9h5l-32.8-319.7c-0.1-1.3-1.2-2.2-2.4-2.2h-136.3c-0.7 0-1.3 0.3-1.8 0.8-0.5 0.5-0.7 1.2-0.6 1.9l32.6 319.2z"/>
						</g>
						<path id="&lt;Path&gt;" class="s11" d="m378.8 345.1h-136.2"/>
						<path id="&lt;Path&gt;" class="s12" d="m338.9 345.1l19-185.4h-136.2l-19 185.4z"/>
						<path id="&lt;Path&gt;" class="s13" d="m338.9 345.1l19-185.4h-136.2l-19 185.4z"/>
						<path id="&lt;Path&gt;" class="s14" d="m230.9 205.7l-9.1 89.5h17.9l9.2-89.5z"/>
						<path id="&lt;Path&gt;" class="s15" d="m258.5 227.2l-7 68h17.9l7-68z"/>
						<path id="&lt;Path&gt;" class="s16" d="m285 245l-5.2 50.2h18l5.1-50.2z"/>
						<path id="&lt;Path&gt;" class="s17" d="m318.8 218.8l-7.9 76.4h18l7.8-76.4z"/>
						<path id="&lt;Path&gt;" class="s18" d="m331.9 332.3l0.3-2.6h-121.5l-0.2 2.6z"/>
						<path id="&lt;Path&gt;" class="s18" d="m332.9 326.2l0.2-2.5h-121.4l-0.3 2.5z"/>
						<path id="&lt;Path&gt;" class="s18" d="m333.8 320.1l0.3-2.5h-121.5l-0.3 2.5z"/>
						<path id="&lt;Path&gt;" class="s18" d="m334.8 314l0.2-2.5h-121.5l-0.2 2.5z"/>
						<path id="&lt;Path&gt;" class="s18" d="m335.7 307.9l0.2-2.5h-121.4l-0.3 2.5z"/>
						<path id="&lt;Path&gt;" class="s18" d="m336.6 301.9l0.3-2.6h-121.5l-0.3 2.6z"/>
						<path id="&lt;Path&gt;" class="s8" d="m290 180.1l-0.6 6.4h52.7l0.6-6.4z"/>
						<path id="&lt;Path&gt;" class="s8" d="m288.5 190.1l-0.7 6.3h52.7l0.6-6.3z"/>
						<g id="&lt;Group&gt;">
							<path id="&lt;Path&gt;" class="s1" d="m191.5 479.1l32.5-316.9h131.2l-32.5 316.9h5l32.7-319.2c0.1-0.7-0.2-1.4-0.6-1.9-0.5-0.5-1.2-0.8-1.9-0.8h-136.2c-1.3 0-2.3 0.9-2.5 2.2l-32.7 319.7z"/>
						</g>
						<path id="&lt;Path&gt;" class="s19" d="m202.7 345.1h136.2"/>
					</g>
					<path id="&lt;Path&gt;" class="s20" d="m311.4 71.8v69.3h77.7"/>
					<path id="&lt;Path&gt;" class="s21" d="m203 107.3v40.8h-62.5"/>
					<g id="&lt;Group&gt;">
						<g id="&lt;Group&gt;">
							<path id="&lt;Path&gt;" class="s22" d="m225 107.3c0 12.2-9.8 22.1-22 22.1-12.2 0-22-9.9-22-22.1 0-12.1 9.8-22 22-22 12.2 0 22 9.9 22 22z"/>
						</g>
						<path id="&lt;Compound Path&gt;" fill-rule="evenodd" class="s12" d="m212 109h-2.1q-0.3 1.1-0.9 2l1.5 1.6c0.3 0.2 0.3 0.6 0 0.8l-1.4 1.5c-0.3 0.2-0.6 0.2-0.9 0l-1.5-1.5q-1 0.6-2.1 0.8v2.2c0 0.3-0.2 0.6-0.6 0.6h-2.1c-0.3 0-0.6-0.3-0.6-0.6v-2.2q-1.1-0.2-2-0.8l-1.5 1.5c-0.3 0.2-0.7 0.2-0.9 0l-1.5-1.5c-0.2-0.2-0.2-0.6 0-0.8l1.6-1.6q-0.6-0.9-0.9-2h-2.2c-0.3 0-0.6-0.3-0.6-0.6v-2.1c0-0.3 0.3-0.6 0.6-0.6h2.2q0.3-1.1 0.9-2.1l-1.6-1.5c-0.2-0.2-0.2-0.6 0-0.8l1.5-1.5c0.2-0.3 0.6-0.3 0.9 0l1.5 1.5q0.9-0.6 2-0.8v-2.2c0-0.3 0.3-0.6 0.6-0.6h2.1c0.4 0 0.6 0.3 0.6 0.6v2.2q1.1 0.2 2.1 0.8l1.5-1.5c0.3-0.3 0.6-0.3 0.9 0l1.4 1.5c0.3 0.2 0.3 0.6 0 0.8l-1.5 1.5q0.6 1 0.9 2.1h2.1c0.4 0 0.6 0.3 0.6 0.6v2.1c0 0.3-0.2 0.6-0.6 0.6zm-5.3-0.8c0.6-2.8-1.8-5.2-4.6-4.5-1.4 0.3-2.5 1.4-2.8 2.8-0.6 2.7 1.8 5.1 4.5 4.5 1.4-0.3 2.6-1.4 2.9-2.8z"/>
					</g>
					<g id="&lt;Group&gt;">
						<g id="&lt;Group&gt;">
							<path id="&lt;Path&gt;" class="s1" d="m332.8 71.7c0 12.2-9.8 22-22 22-12.2 0-22-9.8-22-22 0-12.2 9.8-22 22-22 12.2 0 22 9.8 22 22z"/>
						</g>
						<g id="&lt;Group&gt;">
							<path id="&lt;Path&gt;" class="s12" d="m320 67.5v0.1l-1.9 0.9c0.5 1 0.8 2.1 0.8 3.2 0 4.1-3.4 7.5-7.5 7.5-4.1 0-7.5-3.4-7.5-7.5 0-4.1 3.4-7.5 7.5-7.5 2.7 0 5 1.5 6.3 3.6l0.9-0.5 0.3-1.6c-1.7-2.2-4.5-3.6-7.5-3.6-5.3 0-9.7 4.3-9.7 9.6 0 5.3 4.4 9.7 9.7 9.7 5.3 0 9.6-4.4 9.6-9.7 0-1.5-0.3-2.9-1-4.2z"/>
							<path id="&lt;Path&gt;" class="s12" d="m314.8 70.1q0.3 0.7 0.3 1.6c0 2.1-1.7 3.8-3.8 3.8-2 0-3.7-1.7-3.7-3.8 0-2.1 1.7-3.8 3.7-3.8 1.4 0 2.5 0.7 3.2 1.8l1.8-1.1c-1-1.6-2.9-2.7-5-2.7-3.2 0-5.8 2.6-5.8 5.8 0 3.3 2.6 5.9 5.8 5.9 3.3 0 5.9-2.6 5.9-5.9 0-0.9-0.2-1.7-0.6-2.5z"/>
							<path id="&lt;Path&gt;" class="s12" d="m311.4 71.8l-0.1-0.2 1.4-0.9c-0.3-0.4-0.8-0.7-1.3-0.7-0.9 0-1.7 0.8-1.7 1.7 0 0.9 0.8 1.7 1.7 1.7 0.9 0 1.7-0.8 1.7-1.7q0-0.4-0.2-0.7z"/>
							<path id="&lt;Path&gt;" class="s12" d="m324.1 67.2c0.1-0.1 0.1-0.4-0.1-0.4l-1.5-0.6 0.3-1.7c0-0.2-0.2-0.3-0.3-0.2l-2.6 1.4-0.8 1.8-7.7 4.3 0.4 0.7 7.7-4.3 2 0.4z"/>
						</g>
					</g>
					<path id="&lt;Path&gt;" class="s23" d="m272.5 201.8c-0.3 0 19.5-2.1 19.5-2.1l-1.4-9.1-21.1 2.2z"/>
					<path id="&lt;Path&gt;" class="s24" d="m272.5 201.8c-0.3 0 19.5-2.1 19.5-2.1l-1.4-9.1-21.1 2.2z"/>
					<path id="&lt;Path&gt;" class="s23" d="m277.7 204.5c-0.5 0.6-1.4 0.7-2.1 0.6q-1.1 0-2.1-0.3-0.3-0.1-0.5-0.1 0 0.3-0.1 0.5c-0.1 0.4-0.5 0.8-0.9 1-0.5 0.2-1.2 0.2-1.8 0.1q-0.6-0.1-1.2-0.2-0.6-0.2-1.1-0.4h-0.1q-0.3-0.1-0.7-0.2 0.2 0.3 0.3 0.8c0.1 0.9-0.3 2-1.1 2.5-0.7 0.6-1.8 0.6-2.6 0.2q-0.5-0.2-0.8-0.6 0 0.3-0.1 0.6c-0.2 0.5-0.7 0.9-1.3 1-0.8 0.2-1.6-0.1-2.3-0.4q-0.6-0.2-1.2-0.4c-4.3-1.7-9.2-3.6-11.4-7.6-0.6-1-1.4-1.8-2.1-2.3-1.3-1-2.9-1.4-4.5-1.6-3.7-0.3-7.8 0.6-10.7-0.9 1.3-2.9-1.2-13.8-1-13.8 4.2 0.8 9.9 0.9 15.6 1.2 3.8 0.2 7.6 0.4 10.7 0.8 1.9 0.3 3.6 0.6 5 1.1 3.7 1.3 6.6 4.1 9.4 6.8q2.2 2.1 4.4 4.3c1.4 1.4 2.9 2.7 4 4.3q0.1 0.2 0.2 0.4c0.5 0.8 0.7 1.9 0.1 2.6z"/>
					<path id="&lt;Path&gt;" class="s24" d="m258 209.2c-4.3-1.7-9.2-3.6-11.4-7.6-0.6-1-1.4-1.8-2.1-2.3q0.1-0.3 0.2-0.6c1.1 0 2-0.7 3-0.9 1.6-0.3 3.2 1 3.2 2.6 1.5-0.3 3 1.2 2.7 2.7 1.8 0.3 3.2 1.8 3.9 3.4q0.5 1.3 0.5 2.7z"/>
					<path id="&lt;Path&gt;" class="s24" d="m277.6 201.9c-3 0.7-6.3-0.4-9-2.1-3.2-2.1-5.9-5-7.7-8.4-1.8 0.8-3.8 1.6-5.7 1.1-2.6-0.7-4.2-4.1-2.9-6.5q1.1-0.6 2.3-1c1.9 0.3 3.6 0.6 5 1.1 3.7 1.3 6.6 4.1 9.4 6.8q2.2 2.1 4.4 4.3c1.4 1.4 2.9 2.7 4 4.3q0.1 0.2 0.2 0.4z"/>
					<path id="&lt;Path&gt;" class="s24" d="m243.9 184.2c-0.9 3.1-2.5 9-3.9 13.5-3.7-0.3-7.8 0.6-10.7-0.9 1.3-2.9-1.2-13.8-1-13.8 4.2 0.8 9.9 0.9 15.6 1.2z"/>
					<path id="&lt;Path&gt;" class="s23" d="m287.1 193.4q-1.9 1.6-3.8 3.2c-1.1 0.9-2.2 1.9-3.5 2.4q-0.6 0.3-1.3 0.4c-2.1 0.4-4.1-0.5-5.9-1.6-2.3-1.4-4.5-3.1-6.3-5.1-0.8-0.8-3.9-3.7-4.8-4.1-1.6-0.8-3.4-0.2-5 0.5-1.1 0.5-2.4 1.1-3.5 0.7-0.5-0.2-0.9-0.5-1.2-0.9q-0.2-0.4-0.3-0.8c-1.1-3.8 4.3-6.1 7.2-6.4 6-0.6 11.1 5.4 17.2 5.2 0.5 0 2.1-0.1 3.9-0.2 3.1-0.3 7-0.6 8-0.7 0.4 0-2.2 5.3-0.7 7.4z"/>
					<path id="&lt;Path&gt;" class="s24" d="m287.1 193.4q-1.9 1.6-3.8 3.2c-1.1 0.9-2.2 1.9-3.5 2.4-0.2-4.9-0.1-9.8 0-12.3 3.1-0.3 7-0.6 8-0.7 0.4 0-2.2 5.3-0.7 7.4z"/>
					<path id="&lt;Path&gt;" class="s23" d="m252.6 208.7c-0.9 0.5-1.9 0.9-2.9 0.6-0.4-0.2-0.8-0.5-1.1-0.8q0 0-0.1-0.1c-0.4-0.4-0.7-0.9-0.7-1.4-0.1-0.6 0.2-1.2 0.7-1.5 0.6 0.2 1.3 0 1.9-0.2 0.6-0.2 1.2-0.4 1.8-0.5q0.1-0.1 0.1-0.1c0.5 0 1 0 1.3 0.2 0.3 0.2 0.4 0.6 0.5 0.9 0.2 1.1-0.6 2.2-1.5 2.9z"/>
					<path id="&lt;Path&gt;" class="s24" d="m252.2 204.8c-0.2 0.7-0.5 1.5-1 2.1-0.6 0.5-1.3 0.9-2 1.3q-0.3 0.2-0.6 0.3 0 0-0.1-0.1c-0.4-0.4-0.7-0.9-0.7-1.4-0.1-0.6 0.2-1.2 0.7-1.5 0.6 0.2 1.3 0 1.9-0.2 0.6-0.2 1.2-0.4 1.8-0.5z"/>
					<path id="&lt;Path&gt;" class="s23" d="m249.8 206.3c-0.9 0.6-2.1 1-3.1 0.7-0.5-0.2-0.9-0.5-1.2-0.8q-0.1-0.1-0.2-0.1c-0.4-0.5-0.7-1.1-0.8-1.7-0.1-0.6 0.2-1.3 0.8-1.6 0.7 0.2 1.4 0.1 2.1-0.2 0.6-0.2 1.2-0.4 1.9-0.6q0.1 0 0.2 0c0.5-0.1 1.1-0.1 1.5 0.2 0.2 0.2 0.4 0.6 0.4 0.9 0.3 1.3-0.6 2.5-1.6 3.2z"/>
					<path id="&lt;Path&gt;" class="s24" d="m249.3 202c-0.2 0.6-0.5 1.1-0.8 1.5-0.8 1.1-1.8 2.1-3 2.7q-0.1-0.1-0.2-0.1c-0.4-0.5-0.7-1.1-0.8-1.7-0.1-0.6 0.2-1.3 0.8-1.6 0.7 0.2 1.4 0.1 2.1-0.2 0.6-0.2 1.2-0.4 1.9-0.6z"/>
					<path id="&lt;Path&gt;" class="s23" d="m249.3 199.6c0.1 1.5-1 2.8-2.4 3.5-1.1 0.6-2.5 0.9-3.7 0.4-0.6-0.3-1.1-0.7-1.5-1.2-0.5-0.6-0.8-1.3-0.8-2.1 0-0.7 0.4-1.9 1.1-2.2 0.8 0.3 1.7 0.7 2.6 0.5 0.8-0.2 1.7-0.5 2.5-0.5 0.6-0.1 1.3 0 1.7 0.4 0.3 0.3 0.5 0.7 0.5 1.2z"/>
					<g id="&lt;Group&gt;">
						<g id="&lt;Group&gt;">
							<path id="&lt;Compound Path&gt;" fill-rule="evenodd" class="s25" d="m110.8 285.7h-37.1v-13.2c0-4.4 3.6-8 8-8h21.2c4.4 0 7.9 3.6 7.9 8zm-31.4-5.7h25.7v-7.5c0-1.3-1-2.3-2.2-2.3h-21.2c-1.3 0-2.3 1-2.3 2.3z"/>
						</g>
						<path id="&lt;Path&gt;" class="s25" d="m136.7 341.4h-88.9c-3.3 0-5.9-2.6-5.9-5.8v-53.4c0-3.2 2.6-5.9 5.9-5.9h88.9c3.3 0 5.9 2.7 5.9 5.9v53.4c0 3.2-2.6 5.8-5.9 5.8z"/>
					</g>
					<path id="&lt;Path&gt;" class="s22" d="m404.1 146.3l-18.3 19.4-22.3 23.8-2.6 2.8c-1.8 1.9-4.2 3.1-6.8 3.4l-54.6 6.1-5.9 0.6-9.4 1.1-3.2-21.2 9-1.1 0.9-0.1 56.7-6.7 25.2-26.8 12.3-13.1 3-3.2c4.1-4.4 11-4.6 15.5-0.5 4.4 4.1 4.6 11.1 0.5 15.5z"/>
					<path id="&lt;Path&gt;" class="s26" d="m385.8 165.7l-22.3 23.9c1.8-13.1 6.3-30.9 9.3-42l12.3-13.1z"/>
					<path id="&lt;Path&gt;" class="s27" d="m386.2 70.4c-1.7-1.5-4.5-1.5-6.4-0.2-1.9 1.2-2.9 3.5-3 5.8 0 2.3 0.8 4.5 2.1 6.4-1.7 1.1-2.7 3.2-2.7 5.2 0 2 1.1 4 2.8 5.1-0.9 2.1-0.6 4.7 0.6 6.6 1.3 1.9 3.6 3.1 5.9 3.2-1.3-10.8-2.6-21.9 0.7-32.1z"/>
					<g id="&lt;Group&gt;">
						<path id="&lt;Path&gt;" class="s23" d="m382.2 450.5c0 0 0.5 9.3-7.4 13.1 0 0 7.1 6.6 15.1 6.6 7.9 0 11.7-1.9 11.7-1.9v-16.6z"/>
						<path id="&lt;Path&gt;" class="s24" d="m382.2 450.5c0 0 0.5 9.3-7.4 13.1 0 0 7.1 6.6 15.1 6.6 7.9 0 11.7-1.9 11.7-1.9v-16.6z"/>
						<path id="&lt;Path&gt;" class="s22" d="m369.4 461.4c1.9-0.3 3.6-0.9 5.3-1.7 0.5-0.2 1.1-0.1 1.5 0.5 6.3 8.9 19.9 7.8 23.9 5.9 1.1-0.6 2.1-0.9 2.9-1.1 0.5-0.1 1 0.4 1 1.1v14.4c0 0.5-0.3 0.9-0.8 0.9h-52.1c-0.4 0-0.7-0.4-0.7-0.9v-5.7c0-6.5 6.5-11 19-13.4z"/>
						<path id="&lt;Path&gt;" class="s26" d="m369.4 461.4c1.9-0.3 3.6-0.9 5.3-1.7 0.5-0.2 1.1-0.1 1.5 0.5 6.3 8.9 19.9 7.8 23.9 5.9 1.1-0.6 2.1-0.9 2.9-1.1 0.5-0.1 1 0.4 1 1.1v14.4c0 0.5-0.3 0.9-0.8 0.9h-52.1c-0.4 0-0.7-0.4-0.7-0.9v-5.7c0-6.5 6.5-11 19-13.4z"/>
						<path id="&lt;Path&gt;" class="s28" d="m350.2 482.6h54.3c0.3 0 0.6-0.3 0.6-0.6v-5.2c0-0.4-0.3-0.7-0.6-0.7h-54.3c-0.4 0-0.7 0.3-0.7 0.7v5.2c0 0.3 0.3 0.6 0.7 0.6z"/>
					</g>
					<path id="&lt;Path&gt;" class="s23" d="m121 103v32.1h-19.8v-32.4z"/>
					<path id="&lt;Path&gt;" class="s24" d="m121 103v20.4c-10.3-1.4-16.5-5.1-19.8-7.8v-12.9z"/>
					<g id="&lt;Group&gt;">
						<path id="&lt;Path&gt;" class="s23" d="m104.2 450.5c0 0-0.5 9.3 7.4 13.1 0 0-7.1 6.6-15.1 6.6-7.9 0-11.7-1.9-11.7-1.9v-16.6z"/>
						<path id="&lt;Path&gt;" class="s24" d="m104.2 450.5c0 0-0.5 9.3 7.4 13.1 0 0-7.1 6.6-15.1 6.6-7.9 0-11.7-1.9-11.7-1.9v-16.6z"/>
						<path id="&lt;Path&gt;" class="s1" d="m117 461.4c-1.9-0.3-3.6-0.9-5.3-1.7-0.5-0.2-1.1-0.1-1.5 0.5-6.3 8.9-19.9 7.8-23.8 5.9-1.2-0.6-2.2-0.9-3-1.1-0.5-0.1-1 0.4-1 1.1v14.4c0 0.5 0.3 0.9 0.8 0.9h52.1c0.4 0 0.8-0.4 0.8-0.9v-5.7c0-6.5-6.6-11-19.1-13.4z"/>
						<path id="&lt;Path&gt;" class="s29" d="m117 461.4c-1.9-0.3-3.6-0.9-5.3-1.7-0.5-0.2-1.1-0.1-1.5 0.5-6.3 8.9-19.9 7.8-23.8 5.9-1.2-0.6-2.2-0.9-3-1.1-0.5-0.1-1 0.4-1 1.1v14.4c0 0.5 0.3 0.9 0.8 0.9h52.1c0.4 0 0.8-0.4 0.8-0.9v-5.7c0-6.5-6.6-11-19.1-13.4z"/>
						<path id="&lt;Path&gt;" class="s28" d="m136.2 482.6h-54.2c-0.4 0-0.7-0.3-0.7-0.6v-5.2c0-0.4 0.3-0.7 0.7-0.7h54.2c0.4 0 0.7 0.3 0.7 0.7v5.2c0 0.3-0.3 0.6-0.7 0.6z"/>
					</g>
					<g id="&lt;Group&gt;">
						<path id="&lt;Path&gt;" class="s23" d="m136.1 450.5c0 0-0.5 9.3 7.5 13.1 0 0-7.2 6.6-15.1 6.6-8 0-11.8-1.9-11.8-1.9v-16.6z"/>
						<path id="&lt;Path&gt;" class="s1" d="m148.9 461.4c-1.9-0.3-3.6-0.9-5.2-1.7-0.6-0.2-1.2-0.1-1.6 0.5-6.2 8.9-19.9 7.8-23.8 5.9-1.2-0.6-2.2-0.9-2.9-1.1-0.6-0.1-1.1 0.4-1.1 1.1v14.4c0 0.5 0.4 0.9 0.8 0.9h52.1c0.4 0 0.8-0.4 0.8-0.9v-5.7c0-6.5-6.6-11-19.1-13.4z"/>
						<path id="&lt;Path&gt;" class="s12" d="m168.1 482.6h-54.2c-0.4 0-0.7-0.3-0.7-0.6v-5.2c0-0.4 0.3-0.7 0.7-0.7h54.2c0.4 0 0.7 0.3 0.7 0.7v5.2c0 0.3-0.3 0.6-0.7 0.6z"/>
					</g>
					<path id="&lt;Path&gt;" class="s1" d="m98.3 256.3l-13.4-63.5 22.1-50.2c2.3-5.2-0.3-11.2-5.7-13.3-5.4-2.2-11.7 0.2-14 5.4l-23.3 53.1c-0.9 1.8-1.1 3.9-0.7 5.9l14.1 66.4z"/>
					<path id="&lt;Path&gt;" class="s29" d="m98.3 256.3l-13.4-63.5 22.1-50.2c2.3-5.2-0.3-11.2-5.7-13.3-5.4-2.2-11.7 0.2-14 5.4l-23.3 53.1c-0.9 1.8-1.1 3.9-0.7 5.9l14.1 66.4z"/>
					<path id="&lt;Path&gt;" class="s1" d="m141.4 252.5v7.9q0 2.3-0.5 4.4-0.6 2.6-1.8 4.9v189.6h-24.8v-172c0-1-0.4-2-1.1-2.7-0.7-0.6-1.6-1.1-2.7-1.1-2.1 0-3.8 1.7-3.8 3.8v172h-24.8v-189.6c-1.4-2.8-2.2-6-2.2-9.3v-7.9z"/>
					<path id="&lt;Path&gt;" class="s29" d="m141.4 252.5v7.9q0 2.3-0.5 4.4c-23.5 0.1-49.7-4.6-61.2-6.9v-5.4z"/>
					<path id="&lt;Path&gt;" class="s1" d="m143.2 157.7v97h-65.3v-97c0-18.5 12.5-33.5 27.9-33.5h9.5c15.3 0 27.9 15 27.9 33.5z"/>
					<path id="&lt;Path&gt;" class="s23" d="m135.1 79.7v18.2c0 11-9.1 20-20.1 20h-1.5c-11 0-20.1-9-20.1-20v-18.2c0-2.6 0.5-5 1.4-7.3 3-7.4 10.2-12.8 18.7-12.8h1.5c10.7 0 19.6 8.6 20 19.2q0.1 0.4 0.1 0.9z"/>
					<path id="&lt;Path&gt;" class="s24" d="m135 78.8c-18.9 7.3-36.6-3.9-40.2-6.4 3-7.4 10.2-12.8 18.7-12.8h1.5c10.7 0 19.6 8.6 20 19.2z"/>
					<g id="&lt;Group&gt;">
						<path id="&lt;Path&gt;" class="s23" d="m414.2 450.5c0 0 0.4 9.3-7.5 13.1 0 0 7.2 6.6 15.1 6.6 7.9 0 11.7-1.9 11.7-1.9v-16.6z"/>
						<path id="&lt;Path&gt;" class="s22" d="m401.3 461.4c1.9-0.3 3.7-0.9 5.3-1.7 0.5-0.2 1.2-0.1 1.5 0.5 6.3 8.9 19.9 7.8 23.9 5.9 1.2-0.6 2.1-0.9 2.9-1.1 0.5-0.1 1 0.4 1 1.1v14.4c0 0.5-0.3 0.9-0.7 0.9h-52.1c-0.5 0-0.8-0.4-0.8-0.9v-5.7c0-6.5 6.5-11 19-13.4z"/>
						<path id="&lt;Path&gt;" class="s12" d="m382.1 482.6h54.3c0.3 0 0.6-0.3 0.6-0.6v-5.2c0-0.4-0.3-0.7-0.6-0.7h-54.3c-0.4 0-0.6 0.3-0.6 0.7v5.2c0 0.3 0.2 0.6 0.6 0.6z"/>
					</g>
					<path id="&lt;Path&gt;" class="s22" d="m438.7 252.5v7.9q0 2.1-0.5 4.2-0.5 2.7-1.8 5.1v189.3h-24.8v-171.7c0-2.1-1.7-3.8-3.8-3.8-1 0-2 0.5-2.7 1.1-0.7 0.7-1.1 1.7-1.1 2.7v171.7h-24.8v-189.3q-1.2-2.3-1.7-4.9-0.5-2.1-0.5-4.4v-7.9z"/>
					<path id="&lt;Path&gt;" class="s26" d="m438.7 252.5v7.9q0 2.1-0.5 4.2c-21.8 0.1-51-5.6-61.2-7.8v-4.3z"/>
					<path id="&lt;Path&gt;" class="s23" d="m444.3 276.5c0.5 2-0.4 3.6-1.5 3.9-0.4 0.1-0.8 0-1.3-0.1-0.1 0.6-0.6 1.4-1.7 2-1 0.6-1.9 0.5-2.6 0.3q-0.1 0.1-0.3 0.1-0.1 0.1-0.1 0.1c-1.3 2.5-3.7 1.9-5.2 1.1h-0.2c-0.6 0.1-1.1 0.2-1.7 0.3-1.7 0.2-3.4-0.6-4.4-1.9-1.1-1.4-1.5-3.2-1.3-4.8 0.1-1.2 0.5-2.4 0.2-3.6-0.1-0.5-0.4-1-0.7-1.4q0-0.2-0.1-0.3c-1.1-2.6 0.1-5.6 1.8-7.8 1.1-1.4 2.4-2.8 4.1-3.4q0.6-0.3 1.3-0.4l0.8-3.3 1.3-6 13.1 2-2.2 9.1-0.4 1.5c0 0 5 3 1.1 12.6z"/>
					<path id="&lt;Path&gt;" class="s24" d="m425.5 269.1c-0.7 1.4-1.3 4.8-1.3 4.8-0.1-0.5-0.4-1-0.7-1.4 0.3-0.6 0.5-1.1 0.7-1.6 0.7-1.7 1.3-1.8 1.3-1.8z"/>
					<path id="&lt;Path&gt;" class="s24" d="m445.8 253.3l-2.2 9.1c-4.5-1.5-9.7-3.8-12.2-5.1l1.3-6z"/>
					<path id="&lt;Path&gt;" class="s12" d="m440.5 157.7v95.6h-61.7l-0.9-95.6c0-13.3 6.5-24.7 15.8-30.2 1-0.5-0.8-1 0.1-1.4 2.9-1.2 6-1.9 9.3-1.9h9.4q2.2 0 4.2 0.4c13.4 2.4 23.8 16.3 23.8 33.1z"/>
					<path id="&lt;Path&gt;" class="s30" d="m440.5 157.7v95.6h-30.5v-129.1h2.5q2.2 0 4.2 0.4c13.4 2.4 23.8 16.3 23.8 33.1z"/>
					<path id="&lt;Path&gt;" class="s22" d="m393.8 126.1v128.6h-18.6v-97c0-13 6.2-24.4 15.3-29.9q0.2-0.1 0.5-0.3 1.4-0.8 2.8-1.4z"/>
					<path id="&lt;Path&gt;" class="s26" d="m393.8 127.1v90.1l-13.5-40.9 7.2-24.8-4.9-12.2 9.2-11.6z"/>
					<path id="&lt;Path&gt;" class="s22" d="m440.5 157.7v97h-23.8v-130.1q2.1 0.3 4.1 1.1 1.2 0.5 2.4 1c8.5 4.3 15 13.5 16.8 24.7q0.4 3.1 0.5 6.3z"/>
					<path id="&lt;Path&gt;" class="s26" d="m440.5 157.7v88.9l-1.2 8.1h-14.4l11.3-57.9-16-45.3 10.3-15.9c0.4 2 10 19.9 10 22.1z"/>
					<path id="&lt;Path&gt;" class="s22" d="m458.3 197.8l-9.1 52.6-0.6 3.7-1 5.6-18-3.9 1.4-7.7 0.2-1.2 8.7-50-15-52.5c-1.9-5.3-3.2-15.3 2-15.8 0 0 13.9 7.8 20.1 23.9l10.8 39.2c0.7 1.9 0.9 4.1 0.5 6.1z"/>
					<path id="&lt;Path&gt;" class="s26" d="m434.9 166.6l-18.2 52.6v-94.6q2.1 0.3 4.1 1.1 1.2 0.5 2.4 1l10.9 13-8.2 14.5z"/>
					<path id="&lt;Path&gt;" class="s23" d="m415.5 102.7v22.4c0 5.5-4.5 10-10.1 10h-4.7c-2.8 0-5-2.2-5-4.9v-27.2z"/>
					<path id="&lt;Path&gt;" class="s24" d="m415.5 102.7v20.8c-8.1 0.7-15.2-1.7-19.8-3.7v-16.8z"/>
					<path id="&lt;Path&gt;" class="s23" d="m422.8 80v18.2c0 11-9 20-20 20h-1.5c-11.1 0-20.1-9-20.1-20v-18.2q0-0.5 0-0.9 0.1-1.3 0.3-2.5c1.7-9.4 9.9-16.6 19.8-16.6h1.5c8.4 0 15.7 5.3 18.6 12.7q0.6 1.5 1 3 0.4 2.1 0.4 4.3z"/>
					<path id="&lt;Path&gt;" class="s24" d="m422.8 80v2.4c-3.1 1-6.8 1.8-11 2.2-17.4 1.9-26.2-3.8-30.3-8 1.7-9.4 9.9-16.6 19.8-16.6h1.5c8.4 0 15.7 5.3 18.6 12.7q0.6 1.5 1 3 0.4 2.1 0.4 4.3z"/>
					<path id="&lt;Path&gt;" class="s27" d="m438.2 80.3c-0.6-2.5-2.1-5-4.6-5.9 1.8-4-0.7-9.2-5-10.3 0.5-2.8-0.7-5.8-2.9-7.5-2.3-1.8-5.4-2.2-8-1.1-0.1-1.8-1.2-3.3-2.7-4.3-1.4-0.9-3.2-1.3-4.9-1.5-2.6-0.2-5.5 0.2-7.3 2.1-2.2-1.6-5.1-2.3-7.9-1.8-2.7 0.5-5.2 2.1-6.7 4.4-2.9-0.7-6.2 0.5-8.1 2.9-1.8 2.3-2.2 5.8-0.9 8.5q0 0-0.1 0c-1.6 1-2 3.4-1 5 0.7 1.3 2.4 2.6 3.9 2.7 1.8 0 3.2-1.5 4.7-0.2 0.7 0.6 1 1.7 1.7 2.4 0.8 0.7 1.8 1.3 2.8 1.7 3 1.1 7.2 1.5 9.2-1.5 1.5 2.4 4.3 5.2 9.3 3q0.2 4.4 0.5 8.8c1.1-2 3.9-2.6 5.8-1.5 2 1.1 2.9 3.7 2.3 5.8-0.5 2.2-2.4 3.9-4.5 4.6-1.4 0.4 2.9 8.4 3.4 9.1 1.7 2.1 3.1 4.6 6.3 4.3 2-0.1 3.8-1.2 5.3-2.5 1.5-1.5 2.8-3.5 2.5-5.5 2.9-0.6 5-3.4 5.5-6.3 0.4-2.9-0.6-5.9-2.1-8.4 1.4-0.1 2.7-1.3 3.3-2.6 0.6-1.4 0.5-3 0.2-4.4z"/>
					<path id="&lt;Path&gt;" class="s25" d="m106.6 52.6c-8.5 1-19.4 5.1-22.4 13.9-0.6 1.7-0.9 3.7 0.2 5.2q0.2 0.1 0.4 0.3c-1.1 0.7-2 1.7-2.6 2.8-0.9 1.7-1.2 3.6-1.3 5.5-0.3 6.1 1.7 11.5 4 17 1.6 3.8 4.1 7.1 7.3 9.6 1.8 1.6 3.3 2.2 3.3 2.2 5.7-2.1 11.3-7.5 11.4-13-1.5 1.1-3.9 0.7-5.2-0.6-1.3-1.4-1.5-3.3-1-5 0.2-1 0.7-1.9 1.6-2.6 1.4-1.3 3.9-1.3 5.5-0.2 0.5 0.5 0.9 1 0.9 1v-11.5c3.5 0.4 7.1 0 10.5-1 3.6-0.9 7.1-2.4 10.5-3.9 2.5-1 5.1-2.2 6.6-4.2-6.3-10.8-17.1-17-29.7-15.5z"/>
					<path id="&lt;Path&gt;" class="s22" d="m393.8 126.1v87.1l-9.5-44.5 5.7-18.8-5.2-9.8 5.7-12.3q0.3-0.1 0.5-0.3 1.4-0.8 2.8-1.4z"/>
					<path id="&lt;Path&gt;" class="s22" d="m422 149l6.6 11.4-11.9 49.5v-85.3q2.1 0.3 4.1 1.1l8.1 13.3z"/>
					<g id="&lt;Group&gt;" style="opacity: .5;mix-blend-mode: multiply">
						<g id="&lt;Group&gt;">
							<path id="&lt;Path&gt;" class="s31" d="m269.6 202.2l3.1 2.7 0.2 0.3q0.1-0.2 0.1-0.5 0.2 0 0.5 0.1l-0.3-0.4-3.1-2.8c-0.2-0.1-0.4-0.1-0.5 0.1-0.2 0.1-0.1 0.3 0 0.5z"/>
						</g>
						<g id="&lt;Group&gt;">
							<path id="&lt;Path&gt;" class="s31" d="m264.5 203.5l2.4 2.2 0.5 0.6q-0.1-0.5-0.3-0.8 0.4 0.1 0.7 0.2l-0.4-0.5-2.4-2.2c-0.1-0.2-0.4-0.1-0.5 0-0.1 0.1-0.1 0.4 0 0.5z"/>
						</g>
						<g id="&lt;Group&gt;">
							<path id="&lt;Path&gt;" class="s31" d="m260.7 206l1.9 2.7 0.2 0.3q0.1-0.3 0.1-0.6 0.3 0.4 0.8 0.6l-0.5-0.8-2-2.6c-0.1-0.2-0.3-0.2-0.5-0.1-0.1 0.1-0.2 0.3 0 0.5z"/>
						</g>
					</g>
					<path id="&lt;Path&gt;" class="s29" d="m143.2 162.7v27.3c-11.8-14.7-29-36.9-31.7-44.6-4.3-11.9 5.7-14.3 5.7-14.3z"/>
					<path id="&lt;Path&gt;" class="s1" d="m239.4 181.6l-2.6 21.8-9.3-1.1-0.9-0.2h-0.5l-5.7-0.7-58.5-7c-2.6-0.3-5-1.5-6.7-3.4l-41-44.8c-4.1-4.5-3.8-11.4 0.7-15.5 4.4-4.1 11.4-3.8 15.5 0.7l38.2 41.8 58 6.9 2.2 0.2 0.9 0.2z"/>
					<path id="&lt;Path&gt;" class="s29" d="m228.8 180.3l-2.7 21.8-5.7-0.7 6.2-21.3z"/>
					<path id="&lt;Path&gt;" class="s1" d="m97.5 126.7l2.5-6.3 17.7 0.8 7.5 5.1z"/>
					<path id="&lt;Path&gt;" class="s32" d="m231.9 199.3c0 0.9-0.7 1.6-1.6 1.6-0.8 0-1.5-0.7-1.5-1.6 0-0.9 0.7-1.6 1.5-1.6 0.9 0 1.6 0.7 1.6 1.6z"/>
					<path id="&lt;Path&gt;" class="s26" d="m299.5 201.8l-5.9 0.6-3.6-21.2 0.9-0.1z"/>
					<path id="&lt;Path&gt;" class="s26" d="m449.2 250.4l-0.6 3.7-17.6-6 0.2-1.2z"/>
					<path id="&lt;Path&gt;" class="s26" d="m446.6 255.9c0 0.6-0.5 1.1-1.1 1.1-0.6 0-1.1-0.5-1.1-1.1 0-0.7 0.5-1.2 1.1-1.2 0.6 0 1.1 0.5 1.1 1.2z"/>
					<path id="&lt;Path&gt;" class="s26" d="m289.4 199.2c0 0.7-0.5 1.2-1.2 1.2-0.6 0-1.2-0.5-1.2-1.2 0-0.6 0.6-1.2 1.2-1.2 0.7 0 1.2 0.6 1.2 1.2z"/>
				</g>
				<g id="&lt;Group&gt;">
					<text id="COMPANY NAME
" style="transform: matrix(2,0,0,2,60.673,-41.18)" >
						<tspan x="0" y="0" class="t33">COMPANY NAME
</tspan>
					</text>
					<g id="&lt;Group&gt;">
						<path id="&lt;Path&gt;" class="s22" d="m24.9-55.8c-2.3 1.4-4 4.3-4 7.6 0 4.6 3.2 8.4 7 8.4h21c0.9 0 1.7-0.2 2.5-0.6-15.4-0.9-23.8-11.2-26.5-15.4z"/>
						<path id="&lt;Path&gt;" class="s22" d="m41.4-49.6c-3-1.6-5-4.7-6.2-7h-2c5.6 11 15.9 14.2 19.9 15.1 1.7-1.6 2.8-4 2.8-6.7 0-4.6-3.2-8.4-7-8.4h-10.2c0.9 3.5 2.7 7 2.7 7z"/>
					</g>
				</g>
			</g>
		</g>
	</g>
	<g id="DESIGNED BY FREEPIK">
		<g id="&lt;Group&gt;">
			<g id="&lt;Group&gt;">
				<g id="&lt;Group&gt;">
					<path id="&lt;Path&gt;" class="s34" d="m502.2 662.9q-1.3 1.3-2.2 2.9l-0.9-0.5c-0.2-0.6-0.7-1-1.4-0.9-0.6 0.1-1.1 0.7-1 1.3 0.1 0.7 0.7 1.2 1.3 1.1q0.2 0 0.4-0.1l0.9 0.4q-0.8 1.7-1.1 3.5l1.5 0.3c0.5-2.6 1.7-5 3.6-7z"/>
					<path id="&lt;Path&gt;" class="s34" d="m513.2 658.3q-0.5 0-1 0l-0.2-1.2c0.4-0.3 0.6-0.8 0.5-1.3 0-0.8-0.8-1.4-1.5-1.3-0.8 0.1-1.4 0.8-1.3 1.6 0.1 0.5 0.4 0.9 0.8 1.1l0.2 1.3q-2.2 0.3-4.2 1.3l0.7 1.3q2.8-1.3 6-1.3 1.5 0 2.9 0.3l0.4-1.5q-1.7-0.3-3.3-0.3z"/>
					<path id="&lt;Path&gt;" class="s34" d="m526.4 663.4c0.7-0.1 1.1-0.7 1-1.4 0-0.6-0.6-1.1-1.3-1-0.6 0.1-1.1 0.6-1.1 1.2l-0.8 0.7q-1.3-1.3-2.8-2.3l-0.8 1.3c2.2 1.5 4 3.5 5.1 5.9l1.4-0.6q-0.8-1.7-1.9-3.1l0.8-0.7q0.2 0 0.4 0z"/>
					<path id="&lt;Path&gt;" class="s34" d="m512.1 678.7q-1.2 0.1-2.3 0.1c-1.8 0-3.5-0.2-5-0.4-0.8-0.1-1.7-0.3-2.5-0.6 2.1 3.7 6.1 6.3 10.8 6.3 5.7 0 10.5-3.9 11.9-9q-2.1 1.3-5 2.2c-2.3 0.7-5.1 1.2-7.9 1.4z"/>
					<path id="&lt;Compound Path&gt;" fill-rule="evenodd" class="s34" d="m525.2 671.7q0.1 0.6 0.1 1.2c-2.7 2.4-7.5 3.9-13.3 4.3-5.3 0.3-9.4-0.5-10.7-1.5q-0.3-1.2-0.3-2.5c0-6.6 5.5-11.9 12.2-11.9 6.1 0 11.3 4.5 12 10.4zm-12.6-1.1c0-2-1.7-3.7-3.7-3.7-2.1 0-3.7 1.7-3.7 3.7 0 2.1 1.6 3.7 3.7 3.7 2 0 3.7-1.6 3.7-3.7zm8.5-0.8c0-1.5-1.3-2.7-2.8-2.7-1.5 0-2.7 1.2-2.7 2.7 0 1.5 1.2 2.7 2.7 2.7 1.5 0 2.8-1.2 2.8-2.7z"/>
				</g>
				<path id="&lt;Compound Path&gt;" class="s34" d="m545.2 665c-0.6-0.2-1.6-0.6-2.8-0.4-1.1 0.1-1.7 0.7-1.7 2v1.7h4.5v3.5h-4.5v10.9h-3.8v-10.9h-2.7v-3.5h2.7v-1.8c0-3.3 1.8-5.5 5.1-5.5 1.3 0 2.3 0.2 3.2 0.6z"/>
				<path id="&lt;Compound Path&gt;" class="s34" d="m554.6 671.7q-0.5-0.1-1.1-0.1c-1.7 0-3 1.1-3 3.2v7.9h-3.8v-14.4h3.7v1.6c0.9-1.4 2.3-2 4-2 0.9 0 1.7 0.3 2.2 0.7z"/>
				<path id="&lt;Compound Path&gt;" fill-rule="evenodd" class="s34" d="m569.9 675.5c0 0.4 0 0.9 0 1.3h-10.2c0.4 2 1.9 2.9 3.7 2.9 1.2 0 2.6-0.5 3.6-1.3l2.3 2.5c-1.7 1.5-3.7 2.1-6.1 2.1-4.4 0-7.5-3-7.5-7.5 0-4.5 3-7.6 7.3-7.6 4.1 0 6.9 3.1 6.9 7.6zm-10.2-1.4h6.4c-0.4-1.8-1.5-2.8-3.2-2.8-1.8 0-2.9 1.1-3.2 2.8z"/>
				<path id="&lt;Compound Path&gt;" fill-rule="evenodd" class="s34" d="m585.2 675.5c0 0.4 0 0.9 0 1.3h-10.2c0.4 2 1.9 2.9 3.7 2.9 1.2 0 2.6-0.5 3.6-1.3l2.3 2.5c-1.7 1.5-3.7 2.1-6.1 2.1-4.4 0-7.5-3-7.5-7.5 0-4.5 3-7.6 7.3-7.6 4.1 0 6.9 3.1 6.9 7.6zm-10.2-1.4h6.4c-0.4-1.8-1.5-2.8-3.2-2.8-1.8 0-2.9 1.1-3.2 2.8z"/>
				<path id="&lt;Compound Path&gt;" fill-rule="evenodd" class="s34" d="m601.9 675.5c0 4.3-3 7.5-6.9 7.5-1.9 0-3.3-0.7-4.2-1.8v7.4h-3.9v-20.3h3.8v1.6c0.9-1.2 2.3-2 4.3-2 3.9 0 6.9 3.3 6.9 7.6zm-11.3 0c0 2.2 1.5 3.9 3.7 3.9 2.2 0 3.7-1.7 3.7-3.9 0-2.2-1.5-4-3.7-4-2.2 0-3.7 1.7-3.7 4z"/>
				<path id="&lt;Compound Path&gt;" class="s34" d="m608.1 663.6c0 1.4-1 2.5-2.4 2.5-1.4 0-2.5-1.1-2.5-2.5 0-1.4 1.1-2.5 2.5-2.5 1.4 0 2.4 1.1 2.4 2.5zm-0.5 19.1h-3.8v-14.4h3.8z"/>
				<path id="&lt;Compound Path&gt;" class="s34" d="m614.1 673.4l5.4-5.1h4.7l-7 6.8 7 7.6h-4.7l-5.4-5.8v5.8h-3.9v-21.4h3.9z"/>
			</g>
			<g id="&lt;Group&gt;">
				<path id="&lt;Compound Path&gt;" fill-rule="evenodd" class="s34" d="m350.8 682.5v-2.1c-1 1.5-2.8 2.5-4.8 2.5-3.6 0-6.2-2.8-6.2-7.4 0-4.5 2.5-7.5 6.2-7.5 2 0 3.7 1 4.8 2.5v-7.5h2.2v19.5zm0-3.8v-6.4c-0.8-1.3-2.5-2.3-4.2-2.3-2.9 0-4.6 2.3-4.6 5.5 0 3.1 1.7 5.4 4.6 5.4 1.7 0 3.4-1 4.2-2.2z"/>
				<path id="&lt;Compound Path&gt;" fill-rule="evenodd" class="s34" d="m355.9 675.4c0-4.1 2.9-7.4 6.9-7.4 4.3 0 6.8 3.4 6.8 7.6v0.6h-11.4c0.2 2.6 2 4.9 5.1 4.9 1.6 0 3.2-0.7 4.3-1.8l1.1 1.4c-1.4 1.4-3.3 2.2-5.6 2.2-4.2 0-7.2-3-7.2-7.5zm6.9-5.6c-3 0-4.5 2.6-4.6 4.8h9.3c-0.1-2.1-1.5-4.8-4.7-4.8z"/>
				<path id="&lt;Compound Path&gt;" class="s34" d="m371.2 680.7l1.2-1.6c0.9 1.1 2.7 2 4.6 2 2.2 0 3.4-1 3.4-2.4 0-3.5-8.8-1.4-8.8-6.6 0-2.2 1.9-4.1 5.3-4.1 2.4 0 4.1 0.9 5.2 2.1l-1 1.5c-0.9-1-2.4-1.8-4.2-1.8-2 0-3.2 1-3.2 2.2 0 3.1 8.8 1.1 8.8 6.6 0 2.4-1.9 4.3-5.6 4.3-2.3 0-4.3-0.7-5.7-2.2z"/>
				<path id="&lt;Compound Path&gt;" class="s34" d="m385 664.9c0-0.8 0.6-1.5 1.4-1.5 0.8 0 1.5 0.7 1.5 1.5 0 0.8-0.7 1.5-1.5 1.5-0.8 0-1.4-0.7-1.4-1.5zm0.3 17.6v-14.1h2.2v14.1z"/>
				<path id="&lt;Compound Path&gt;" fill-rule="evenodd" class="s34" d="m391.2 686.2l1.1-1.7c1.1 1.4 2.6 2 4.6 2 2.3 0 4.5-1.2 4.5-4.3v-2c-1 1.4-2.7 2.5-4.7 2.5-3.7 0-6.3-2.7-6.3-7.3 0-4.6 2.6-7.4 6.3-7.4 1.9 0 3.6 1 4.7 2.5v-2.1h2.2v13.7c0 4.7-3.3 6.2-6.7 6.2-2.4 0-4.1-0.5-5.7-2.1zm10.2-7.7v-6.2c-0.7-1.3-2.4-2.3-4.2-2.3-2.8 0-4.5 2.2-4.5 5.4 0 3.1 1.7 5.4 4.5 5.4 1.8 0 3.5-1.1 4.2-2.3z"/>
				<path id="&lt;Compound Path&gt;" class="s34" d="m416.8 682.5v-9.2c0-2.5-1.2-3.3-3.1-3.3-1.8 0-3.4 1-4.2 2.2v10.3h-2.2v-14.1h2.2v2c1-1.1 2.9-2.4 5-2.4 3 0 4.5 1.5 4.5 4.6v9.9z"/>
				<path id="&lt;Compound Path&gt;" fill-rule="evenodd" class="s34" d="m421.9 675.4c0-4.1 2.9-7.4 6.9-7.4 4.3 0 6.8 3.4 6.8 7.6v0.6h-11.4c0.2 2.6 2 4.9 5.1 4.9 1.6 0 3.2-0.7 4.3-1.8l1.1 1.4c-1.4 1.4-3.3 2.2-5.6 2.2-4.2 0-7.2-3-7.2-7.5zm6.9-5.6c-3 0-4.5 2.6-4.6 4.8h9.3c-0.1-2.1-1.5-4.8-4.7-4.8z"/>
				<path id="&lt;Compound Path&gt;" fill-rule="evenodd" class="s34" d="m448.7 682.5v-2.1c-1.1 1.5-2.8 2.5-4.8 2.5-3.7 0-6.3-2.8-6.3-7.4 0-4.5 2.6-7.5 6.3-7.5 1.9 0 3.7 1 4.8 2.5v-7.5h2.2v19.5zm0-3.8v-6.4c-0.8-1.3-2.5-2.3-4.3-2.3-2.8 0-4.5 2.3-4.5 5.5 0 3.1 1.7 5.4 4.5 5.4 1.8 0 3.5-1 4.3-2.2z"/>
				<path id="&lt;Compound Path&gt;" fill-rule="evenodd" class="s34" d="m461.4 682.5v-19.5h2.2v7.5c1.1-1.5 2.8-2.5 4.8-2.5 3.6 0 6.3 3 6.3 7.5 0 4.6-2.7 7.4-6.3 7.4-2 0-3.8-1-4.8-2.5v2.1zm6.4-1.6c2.9 0 4.6-2.3 4.6-5.4 0-3.2-1.7-5.5-4.6-5.5-1.7 0-3.5 1-4.2 2.3v6.4c0.7 1.2 2.5 2.2 4.2 2.2z"/>
				<path id="&lt;Compound Path&gt;" class="s34" d="m477.1 686.1c0.3 0.1 0.8 0.2 1.2 0.2 0.9 0 1.6-0.3 2.1-1.5l0.9-2.1-5.9-14.3h2.4l4.7 11.6 4.7-11.6h2.4l-7.1 17c-0.9 2.1-2.3 2.8-4.2 2.9-0.5 0-1.2-0.1-1.6-0.2z"/>
			</g>
		</g>
	</g>
</svg>