<svg version="1.2" xmlns="http://www.w3.org/2000/svg" viewBox="0 0 335 367" width="335" height="367">
	<title>2909701_410-ai</title>
	<defs>
		<linearGradient id="g1" x2="1" gradientUnits="userSpaceOnUse" gradientTransform="matrix(-70.171,0,0,-172.519,102.966,55.64)">
			<stop offset="0" stop-color="#c0bff6"/>
			<stop offset="1" stop-color="#e9e9fd"/>
		</linearGradient>
		<linearGradient id="g2" x2="1" gradientUnits="userSpaceOnUse" gradientTransform="matrix(-51.37,29.658,-22.243,-38.526,71.323,33.396)">
			<stop offset="0" stop-color="#c0bff6"/>
			<stop offset="1" stop-color="#e9e9fd"/>
		</linearGradient>
		<linearGradient id="g3" x2="1" gradientUnits="userSpaceOnUse" gradientTransform="matrix(-35.085,0,0,-152.263,77.282,75.896)">
			<stop offset="0" stop-color="#c0bff6"/>
			<stop offset="1" stop-color="#e9e9fd"/>
		</linearGradient>
		<linearGradient id="g4" x2="1" gradientUnits="userSpaceOnUse" gradientTransform="matrix(-9.401,0,0,-167.092,42.196,55.64)">
			<stop offset="0" stop-color="#e9e9fd"/>
			<stop offset="1" stop-color="#c0bff6"/>
		</linearGradient>
		<linearGradient id="g5" x2="1" gradientUnits="userSpaceOnUse" gradientTransform="matrix(-25.685,0,0,-161.664,102.966,66.495)">
			<stop offset="0" stop-color="#5761d7"/>
			<stop offset="1" stop-color="#bcbeff"/>
		</linearGradient>
		<linearGradient id="g6" x2="1" gradientUnits="userSpaceOnUse" gradientTransform="matrix(-70.171,0,0,-146,158.219,112.298)">
			<stop offset="0" stop-color="#c0bff6"/>
			<stop offset="1" stop-color="#e9e9fd"/>
		</linearGradient>
		<linearGradient id="g7" x2="1" gradientUnits="userSpaceOnUse" gradientTransform="matrix(-51.369,29.658,-22.243,-38.526,126.575,90.054)">
			<stop offset="0" stop-color="#c0bff6"/>
			<stop offset="1" stop-color="#e9e9fd"/>
		</linearGradient>
		<linearGradient id="g8" x2="1" gradientUnits="userSpaceOnUse" gradientTransform="matrix(-35.085,0,0,-125.743,132.534,132.555)">
			<stop offset="0" stop-color="#c0bff6"/>
			<stop offset="1" stop-color="#e9e9fd"/>
		</linearGradient>
		<linearGradient id="g9" x2="1" gradientUnits="userSpaceOnUse" gradientTransform="matrix(-9.401,0,0,-140.572,97.449,112.298)">
			<stop offset="0" stop-color="#e9e9fd"/>
			<stop offset="1" stop-color="#c0bff6"/>
		</linearGradient>
		<linearGradient id="g10" x2="1" gradientUnits="userSpaceOnUse" gradientTransform="matrix(-25.685,0,0,-135.145,158.219,123.153)">
			<stop offset="0" stop-color="#5761d7"/>
			<stop offset="1" stop-color="#bcbeff"/>
		</linearGradient>
		<linearGradient id="g11" x2="1" gradientUnits="userSpaceOnUse" gradientTransform="matrix(-70.171,0,0,-118.388,213.472,172.456)">
			<stop offset="0" stop-color="#c0bff6"/>
			<stop offset="1" stop-color="#e9e9fd"/>
		</linearGradient>
		<linearGradient id="g12" x2="1" gradientUnits="userSpaceOnUse" gradientTransform="matrix(-51.369,29.658,-22.243,-38.526,181.828,150.212)">
			<stop offset="0" stop-color="#c0bff6"/>
			<stop offset="1" stop-color="#e9e9fd"/>
		</linearGradient>
		<linearGradient id="g13" x2="1" gradientUnits="userSpaceOnUse" gradientTransform="matrix(-35.085,0,0,-98.131,187.787,192.713)">
			<stop offset="0" stop-color="#c0bff6"/>
			<stop offset="1" stop-color="#e9e9fd"/>
		</linearGradient>
		<linearGradient id="g14" x2="1" gradientUnits="userSpaceOnUse" gradientTransform="matrix(-9.401,0,0,-112.961,152.702,172.456)">
			<stop offset="0" stop-color="#e9e9fd"/>
			<stop offset="1" stop-color="#c0bff6"/>
		</linearGradient>
		<linearGradient id="g15" x2="1" gradientUnits="userSpaceOnUse" gradientTransform="matrix(-25.685,0,0,-107.533,213.472,183.311)">
			<stop offset="0" stop-color="#5761d7"/>
			<stop offset="1" stop-color="#bcbeff"/>
		</linearGradient>
		<linearGradient id="g16" x2="1" gradientUnits="userSpaceOnUse" gradientTransform="matrix(-70.171,0,0,-107.676,268.724,215.714)">
			<stop offset="0" stop-color="#c0bff6"/>
			<stop offset="1" stop-color="#e9e9fd"/>
		</linearGradient>
		<linearGradient id="g17" x2="1" gradientUnits="userSpaceOnUse" gradientTransform="matrix(-51.369,29.658,-22.243,-38.526,237.081,193.471)">
			<stop offset="0" stop-color="#c0bff6"/>
			<stop offset="1" stop-color="#e9e9fd"/>
		</linearGradient>
		<linearGradient id="g18" x2="1" gradientUnits="userSpaceOnUse" gradientTransform="matrix(-35.085,0,0,-87.419,243.04,235.971)">
			<stop offset="0" stop-color="#c0bff6"/>
			<stop offset="1" stop-color="#e9e9fd"/>
		</linearGradient>
		<linearGradient id="g19" x2="1" gradientUnits="userSpaceOnUse" gradientTransform="matrix(-9.401,0,0,-102.249,207.954,215.714)">
			<stop offset="0" stop-color="#e9e9fd"/>
			<stop offset="1" stop-color="#c0bff6"/>
		</linearGradient>
		<linearGradient id="g20" x2="1" gradientUnits="userSpaceOnUse" gradientTransform="matrix(-25.685,0,0,-96.821,268.724,226.569)">
			<stop offset="0" stop-color="#5761d7"/>
			<stop offset="1" stop-color="#bcbeff"/>
		</linearGradient>
		<linearGradient id="g21" x2="1" gradientUnits="userSpaceOnUse" gradientTransform="matrix(-70.171,0,0,-87.419,323.977,268.517)">
			<stop offset="0" stop-color="#c0bff6"/>
			<stop offset="1" stop-color="#e9e9fd"/>
		</linearGradient>
		<linearGradient id="g22" x2="1" gradientUnits="userSpaceOnUse" gradientTransform="matrix(-51.369,29.658,-22.243,-38.526,292.333,246.273)">
			<stop offset="0" stop-color="#c0bff6"/>
			<stop offset="1" stop-color="#e9e9fd"/>
		</linearGradient>
		<linearGradient id="g23" x2="1" gradientUnits="userSpaceOnUse" gradientTransform="matrix(-35.085,0,0,-67.163,298.292,288.773)">
			<stop offset="0" stop-color="#c0bff6"/>
			<stop offset="1" stop-color="#e9e9fd"/>
		</linearGradient>
		<linearGradient id="g24" x2="1" gradientUnits="userSpaceOnUse" gradientTransform="matrix(-9.401,0,0,-81.992,263.207,268.517)">
			<stop offset="0" stop-color="#e9e9fd"/>
			<stop offset="1" stop-color="#c0bff6"/>
		</linearGradient>
		<linearGradient id="g25" x2="1" gradientUnits="userSpaceOnUse" gradientTransform="matrix(-25.685,0,0,-76.565,323.977,279.372)">
			<stop offset="0" stop-color="#5761d7"/>
			<stop offset="1" stop-color="#bcbeff"/>
		</linearGradient>
		<linearGradient id="g26" x2="1" gradientUnits="userSpaceOnUse" gradientTransform="matrix(-70.171,0,0,-144.428,102.966,20.029)">
			<stop offset="0" stop-color="#c0bff6"/>
			<stop offset="1" stop-color="#e9e9fd"/>
		</linearGradient>
		<linearGradient id="g27" x2="1" gradientUnits="userSpaceOnUse" gradientTransform="matrix(-51.37,29.658,-22.243,-38.526,71.323,-2.214)">
			<stop offset="0" stop-color="#c0bff6"/>
			<stop offset="1" stop-color="#e9e9fd"/>
		</linearGradient>
		<linearGradient id="g28" x2="1" gradientUnits="userSpaceOnUse" gradientTransform="matrix(-35.085,0,0,-124.172,77.282,40.286)">
			<stop offset="0" stop-color="#c0bff6"/>
			<stop offset="1" stop-color="#e9e9fd"/>
		</linearGradient>
		<linearGradient id="g29" x2="1" gradientUnits="userSpaceOnUse" gradientTransform="matrix(-9.401,0,0,-139.001,42.196,20.029)">
			<stop offset="0" stop-color="#e9e9fd"/>
			<stop offset="1" stop-color="#c0bff6"/>
		</linearGradient>
		<linearGradient id="g30" x2="1" gradientUnits="userSpaceOnUse" gradientTransform="matrix(-25.685,0,0,-133.573,102.966,30.884)">
			<stop offset="0" stop-color="#5761d7"/>
			<stop offset="1" stop-color="#bcbeff"/>
		</linearGradient>
		<linearGradient id="g31" x2="1" gradientUnits="userSpaceOnUse" gradientTransform="matrix(-70.171,0,0,-120.316,158.219,76.688)">
			<stop offset="0" stop-color="#c0bff6"/>
			<stop offset="1" stop-color="#e9e9fd"/>
		</linearGradient>
		<linearGradient id="g32" x2="1" gradientUnits="userSpaceOnUse" gradientTransform="matrix(-51.369,29.658,-22.243,-38.526,126.575,54.444)">
			<stop offset="0" stop-color="#c0bff6"/>
			<stop offset="1" stop-color="#e9e9fd"/>
		</linearGradient>
		<linearGradient id="g33" x2="1" gradientUnits="userSpaceOnUse" gradientTransform="matrix(-35.085,0,0,-100.059,132.534,96.944)">
			<stop offset="0" stop-color="#c0bff6"/>
			<stop offset="1" stop-color="#e9e9fd"/>
		</linearGradient>
		<linearGradient id="g34" x2="1" gradientUnits="userSpaceOnUse" gradientTransform="matrix(-9.401,0,0,-114.888,97.449,76.688)">
			<stop offset="0" stop-color="#e9e9fd"/>
			<stop offset="1" stop-color="#c0bff6"/>
		</linearGradient>
		<linearGradient id="g35" x2="1" gradientUnits="userSpaceOnUse" gradientTransform="matrix(-25.685,0,0,-109.461,158.219,87.543)">
			<stop offset="0" stop-color="#5761d7"/>
			<stop offset="1" stop-color="#bcbeff"/>
		</linearGradient>
		<linearGradient id="g36" x2="1" gradientUnits="userSpaceOnUse" gradientTransform="matrix(-70.171,0,0,-92.704,213.472,136.846)">
			<stop offset="0" stop-color="#c0bff6"/>
			<stop offset="1" stop-color="#e9e9fd"/>
		</linearGradient>
		<linearGradient id="g37" x2="1" gradientUnits="userSpaceOnUse" gradientTransform="matrix(-51.369,29.658,-22.243,-38.526,181.828,114.602)">
			<stop offset="0" stop-color="#c0bff6"/>
			<stop offset="1" stop-color="#e9e9fd"/>
		</linearGradient>
		<linearGradient id="g38" x2="1" gradientUnits="userSpaceOnUse" gradientTransform="matrix(-35.085,0,0,-72.448,187.787,157.102)">
			<stop offset="0" stop-color="#c0bff6"/>
			<stop offset="1" stop-color="#e9e9fd"/>
		</linearGradient>
		<linearGradient id="g39" x2="1" gradientUnits="userSpaceOnUse" gradientTransform="matrix(-9.401,0,0,-87.277,152.702,136.846)">
			<stop offset="0" stop-color="#e9e9fd"/>
			<stop offset="1" stop-color="#c0bff6"/>
		</linearGradient>
		<linearGradient id="g40" x2="1" gradientUnits="userSpaceOnUse" gradientTransform="matrix(-25.685,0,0,-81.849,213.472,147.701)">
			<stop offset="0" stop-color="#5761d7"/>
			<stop offset="1" stop-color="#bcbeff"/>
		</linearGradient>
		<linearGradient id="g41" x2="1" gradientUnits="userSpaceOnUse" gradientTransform="matrix(-70.171,0,0,-81.992,268.724,180.104)">
			<stop offset="0" stop-color="#c0bff6"/>
			<stop offset="1" stop-color="#e9e9fd"/>
		</linearGradient>
		<linearGradient id="g42" x2="1" gradientUnits="userSpaceOnUse" gradientTransform="matrix(-51.369,29.658,-22.243,-38.526,237.081,157.86)">
			<stop offset="0" stop-color="#c0bff6"/>
			<stop offset="1" stop-color="#e9e9fd"/>
		</linearGradient>
		<linearGradient id="g43" x2="1" gradientUnits="userSpaceOnUse" gradientTransform="matrix(-34.481,19.907,-14.93,-25.86,235.949,166.958)">
			<stop offset="0" stop-color="#5761d7"/>
			<stop offset="1" stop-color="#bcbeff"/>
		</linearGradient>
		<linearGradient id="g44" x2="1" gradientUnits="userSpaceOnUse" gradientTransform="matrix(-35.085,0,0,-61.735,243.04,200.361)">
			<stop offset="0" stop-color="#c0bff6"/>
			<stop offset="1" stop-color="#e9e9fd"/>
		</linearGradient>
		<linearGradient id="g45" x2="1" gradientUnits="userSpaceOnUse" gradientTransform="matrix(-9.401,0,0,-76.565,207.954,180.104)">
			<stop offset="0" stop-color="#e9e9fd"/>
			<stop offset="1" stop-color="#c0bff6"/>
		</linearGradient>
		<linearGradient id="g46" x2="1" gradientUnits="userSpaceOnUse" gradientTransform="matrix(-25.685,0,0,-71.137,268.724,190.959)">
			<stop offset="0" stop-color="#5761d7"/>
			<stop offset="1" stop-color="#bcbeff"/>
		</linearGradient>
		<linearGradient id="g47" x2="1" gradientUnits="userSpaceOnUse" gradientTransform="matrix(-70.171,0,0,-40.212,268.724,147.384)">
			<stop offset="0" stop-color="#c0bff6"/>
			<stop offset="1" stop-color="#e9e9fd"/>
		</linearGradient>
		<linearGradient id="g48" x2="1" gradientUnits="userSpaceOnUse" gradientTransform="matrix(-51.369,29.658,-22.243,-38.526,237.081,125.14)">
			<stop offset="0" stop-color="#c0bff6"/>
			<stop offset="1" stop-color="#e9e9fd"/>
		</linearGradient>
		<linearGradient id="g49" x2="1" gradientUnits="userSpaceOnUse" gradientTransform="matrix(-35.085,0,0,-19.956,243.04,167.64)">
			<stop offset="0" stop-color="#c0bff6"/>
			<stop offset="1" stop-color="#e9e9fd"/>
		</linearGradient>
		<linearGradient id="g50" x2="1" gradientUnits="userSpaceOnUse" gradientTransform="matrix(-9.401,0,0,-34.785,207.954,147.384)">
			<stop offset="0" stop-color="#e9e9fd"/>
			<stop offset="1" stop-color="#c0bff6"/>
		</linearGradient>
		<linearGradient id="g51" x2="1" gradientUnits="userSpaceOnUse" gradientTransform="matrix(-25.685,0,0,-29.357,268.724,158.239)">
			<stop offset="0" stop-color="#5761d7"/>
			<stop offset="1" stop-color="#bcbeff"/>
		</linearGradient>
		<linearGradient id="g52" x2="1" gradientUnits="userSpaceOnUse" gradientTransform="matrix(-70.171,0,0,-61.735,323.977,232.907)">
			<stop offset="0" stop-color="#c0bff6"/>
			<stop offset="1" stop-color="#e9e9fd"/>
		</linearGradient>
		<linearGradient id="g53" x2="1" gradientUnits="userSpaceOnUse" gradientTransform="matrix(-51.369,29.658,-22.243,-38.526,292.333,210.663)">
			<stop offset="0" stop-color="#c0bff6"/>
			<stop offset="1" stop-color="#e9e9fd"/>
		</linearGradient>
		<linearGradient id="g54" x2="1" gradientUnits="userSpaceOnUse" gradientTransform="matrix(-35.085,0,0,-41.479,298.292,253.163)">
			<stop offset="0" stop-color="#c0bff6"/>
			<stop offset="1" stop-color="#e9e9fd"/>
		</linearGradient>
		<linearGradient id="g55" x2="1" gradientUnits="userSpaceOnUse" gradientTransform="matrix(-9.401,0,0,-56.308,263.207,232.907)">
			<stop offset="0" stop-color="#e9e9fd"/>
			<stop offset="1" stop-color="#c0bff6"/>
		</linearGradient>
		<linearGradient id="g56" x2="1" gradientUnits="userSpaceOnUse" gradientTransform="matrix(-25.685,0,0,-50.881,323.977,243.761)">
			<stop offset="0" stop-color="#5761d7"/>
			<stop offset="1" stop-color="#bcbeff"/>
		</linearGradient>
		<linearGradient id="g57" x2="1" gradientUnits="userSpaceOnUse" gradientTransform="matrix(91.968,53.098,-24.08,41.708,74.759,268.38)">
			<stop offset="0" stop-color="#c0bff6"/>
			<stop offset="1" stop-color="#e9e9fd"/>
		</linearGradient>
		<linearGradient id="g58" x2="1" gradientUnits="userSpaceOnUse" gradientTransform="matrix(80.987,0,0,46.913,26.488,267.118)">
			<stop offset=".355" stop-color="#bcbeff"/>
			<stop offset=".893" stop-color="#5761d7"/>
		</linearGradient>
		<linearGradient id="g59" x2="1" gradientUnits="userSpaceOnUse" gradientTransform="matrix(94.356,54.477,-24.776,42.913,74.519,254.915)">
			<stop offset="0" stop-color="#e9e9fd"/>
			<stop offset="1" stop-color="#c0bff6"/>
		</linearGradient>
		<linearGradient id="g60" x2="1" gradientUnits="userSpaceOnUse" gradientTransform="matrix(91.968,53.098,-24.08,41.708,74.759,235.967)">
			<stop offset="0" stop-color="#c0bff6"/>
			<stop offset="1" stop-color="#e9e9fd"/>
		</linearGradient>
		<linearGradient id="g61" x2="1" gradientUnits="userSpaceOnUse" gradientTransform="matrix(80.987,0,0,46.913,26.488,234.706)">
			<stop offset=".355" stop-color="#bcbeff"/>
			<stop offset=".893" stop-color="#5761d7"/>
		</linearGradient>
		<linearGradient id="g62" x2="1" gradientUnits="userSpaceOnUse" gradientTransform="matrix(94.356,54.477,-24.776,42.913,74.519,222.502)">
			<stop offset="0" stop-color="#e9e9fd"/>
			<stop offset="1" stop-color="#c0bff6"/>
		</linearGradient>
		<linearGradient id="g63" x2="1" gradientUnits="userSpaceOnUse" gradientTransform="matrix(20.836,0,0,11.338,73.858,191.969)">
			<stop offset="0" stop-color="#5761d7"/>
			<stop offset="1" stop-color="#42e8e0"/>
		</linearGradient>
		<linearGradient id="g64" x2="1" gradientUnits="userSpaceOnUse" gradientTransform="matrix(12.133,0,0,45.946,104.276,255.034)">
			<stop offset="0" stop-color="#5761d7"/>
			<stop offset="1" stop-color="#42e8e0"/>
		</linearGradient>
		<linearGradient id="g65" x2="1" gradientUnits="userSpaceOnUse" gradientTransform="matrix(1.923,0,0,2.181,119.678,185.502)">
			<stop offset="0" stop-color="#5761d7"/>
			<stop offset="1" stop-color="#42e8e0"/>
		</linearGradient>
		<linearGradient id="g66" x2="1" gradientUnits="userSpaceOnUse" gradientTransform="matrix(30.682,0,0,18.816,91.722,238.684)">
			<stop offset="0" stop-color="#5761d7"/>
			<stop offset="1" stop-color="#42e8e0"/>
		</linearGradient>
		<linearGradient id="g67" x2="1" gradientUnits="userSpaceOnUse" gradientTransform="matrix(8.072,0,0,25.913,121.151,201.381)">
			<stop offset="0" stop-color="#5761d7"/>
			<stop offset="1" stop-color="#42e8e0"/>
		</linearGradient>
		<linearGradient id="g68" x2="1" gradientUnits="userSpaceOnUse" gradientTransform="matrix(23.762,0,0,37.496,76.861,253.544)">
			<stop offset="0" stop-color="#5761d7"/>
			<stop offset="1" stop-color="#42e8e0"/>
		</linearGradient>
		<linearGradient id="g69" x2="1" gradientUnits="userSpaceOnUse" gradientTransform="matrix(3.025,0,0,1.496,90.06,264.527)">
			<stop offset="0" stop-color="#5761d7"/>
			<stop offset="1" stop-color="#42e8e0"/>
		</linearGradient>
		<linearGradient id="g70" x2="1" gradientUnits="userSpaceOnUse" gradientTransform="matrix(3.025,0,0,1.496,84.138,259.342)">
			<stop offset="0" stop-color="#5761d7"/>
			<stop offset="1" stop-color="#42e8e0"/>
		</linearGradient>
		<linearGradient id="g71" x2="1" gradientUnits="userSpaceOnUse" gradientTransform="matrix(23.292,0,0,44.562,89.911,212.961)">
			<stop offset="0" stop-color="#5761d7"/>
			<stop offset="1" stop-color="#42e8e0"/>
		</linearGradient>
	</defs>
	<style>
		.s0 { fill: url(#g1) } 
		.s1 { fill: url(#g2) } 
		.s2 { fill: #ffffff } 
		.s3 { fill: url(#g3) } 
		.s4 { fill: url(#g4) } 
		.s5 { fill: url(#g5) } 
		.s6 { fill: url(#g6) } 
		.s7 { fill: url(#g7) } 
		.s8 { fill: url(#g8) } 
		.s9 { fill: url(#g9) } 
		.s10 { fill: url(#g10) } 
		.s11 { fill: url(#g11) } 
		.s12 { fill: url(#g12) } 
		.s13 { fill: url(#g13) } 
		.s14 { fill: url(#g14) } 
		.s15 { fill: url(#g15) } 
		.s16 { fill: url(#g16) } 
		.s17 { fill: url(#g17) } 
		.s18 { fill: url(#g18) } 
		.s19 { fill: url(#g19) } 
		.s20 { fill: url(#g20) } 
		.s21 { fill: url(#g21) } 
		.s22 { fill: url(#g22) } 
		.s23 { fill: url(#g23) } 
		.s24 { fill: url(#g24) } 
		.s25 { fill: url(#g25) } 
		.s26 { fill: url(#g26) } 
		.s27 { fill: url(#g27) } 
		.s28 { fill: url(#g28) } 
		.s29 { fill: url(#g29) } 
		.s30 { fill: url(#g30) } 
		.s31 { fill: url(#g31) } 
		.s32 { fill: url(#g32) } 
		.s33 { fill: url(#g33) } 
		.s34 { fill: url(#g34) } 
		.s35 { fill: url(#g35) } 
		.s36 { fill: url(#g36) } 
		.s37 { fill: url(#g37) } 
		.s38 { fill: url(#g38) } 
		.s39 { fill: url(#g39) } 
		.s40 { fill: url(#g40) } 
		.s41 { fill: url(#g41) } 
		.s42 { fill: url(#g42) } 
		.s43 { opacity: .3;fill: url(#g43) } 
		.s44 { fill: url(#g44) } 
		.s45 { fill: url(#g45) } 
		.s46 { fill: url(#g46) } 
		.s47 { fill: url(#g47) } 
		.s48 { fill: url(#g48) } 
		.s49 { fill: url(#g49) } 
		.s50 { fill: url(#g50) } 
		.s51 { fill: url(#g51) } 
		.s52 { fill: url(#g52) } 
		.s53 { fill: url(#g53) } 
		.s54 { fill: url(#g54) } 
		.s55 { fill: url(#g55) } 
		.s56 { fill: url(#g56) } 
		.s57 { fill: url(#g57) } 
		.s58 { fill: url(#g58) } 
		.s59 { fill: url(#g59) } 
		.s60 { fill: url(#g60) } 
		.s61 { fill: url(#g61) } 
		.s62 { fill: url(#g62) } 
		.s63 { fill: #160a5b } 
		.s64 { fill: #24126a } 
		.s65 { fill: #4846a5 } 
		.s66 { fill: #fcd1c5 } 
		.s67 { fill: #453c9e } 
		.s68 { fill: url(#g63) } 
		.s69 { fill: #f0f6ff } 
		.s70 { fill: #aa8383 } 
		.s71 { fill: #c4ccd6 } 
		.s72 { fill: #e2b1a6 } 
		.s73 { fill: #1b2b3a } 
		.s74 { fill: #936d6d } 
		.s75 { fill: url(#g64) } 
		.s76 { fill: url(#g65) } 
		.s77 { fill: url(#g66) } 
		.s78 { fill: url(#g67) } 
		.s79 { fill: url(#g68) } 
		.s80 { fill: url(#g69) } 
		.s81 { fill: #722318 } 
		.s82 { fill: url(#g70) } 
		.s83 { fill: url(#g71) } 
	</style>
	<g id="321353356351 1">
		<g id="&lt;Group&gt;">
			<g id="&lt;Group&gt;" style="opacity: .3">
				<g id="&lt;Group&gt;">
					<path id="&lt;Path&gt;" class="s0" d="m44.3 71.2l-11.5-15.6 9.4 167.1 35.1 5.5 25.7-161.7z"/>
					<path id="&lt;Path&gt;" class="s1" d="m32.8 55.6l25.7-14.8 35.1 5.4 9.4 20.3-25.7 14.8-35.1-5.4z"/>
					<path id="&lt;Path&gt;" class="s2" d="m33.5 55.2l9 19.5 35.1 5.5 25-14.5 0.4 0.8-25.7 14.8-35.1-5.4-9.4-20.3z"/>
					<path id="&lt;Path&gt;" class="s3" d="m42.2 75.9v146.8l35.1 5.5v-146.9z"/>
					<path id="&lt;Path&gt;" class="s4" d="m32.8 55.6v146.9l9.4 20.2v-146.8z"/>
					<path id="&lt;Path&gt;" class="s5" d="m103 66.5v146.8l-25.7 14.9v-146.9z"/>
				</g>
				<g id="&lt;Group&gt;">
					<path id="&lt;Path&gt;" class="s6" d="m99.6 127.9l-11.6-15.6 9.4 140.6 35.1 5.4 25.7-135.1z"/>
					<path id="&lt;Path&gt;" class="s7" d="m88 112.3l25.7-14.8 35.1 5.4 9.4 20.3-25.7 14.8-35.1-5.4z"/>
					<path id="&lt;Path&gt;" class="s2" d="m88.7 111.9l9.1 19.5 35.1 5.4 25-14.4 0.3 0.8-25.7 14.8-35.1-5.4-9.4-20.3z"/>
					<path id="&lt;Path&gt;" class="s8" d="m97.4 132.6v120.3l35.1 5.4v-120.3z"/>
					<path id="&lt;Path&gt;" class="s9" d="m88 112.3v120.3l9.4 20.3v-120.3z"/>
					<path id="&lt;Path&gt;" class="s10" d="m158.2 123.2v120.3l-25.7 14.8v-120.3z"/>
				</g>
				<g id="&lt;Group&gt;">
					<path id="&lt;Path&gt;" class="s11" d="m154.8 188l-11.5-15.5 9.4 112.9 35.1 5.4 25.7-107.5z"/>
					<path id="&lt;Path&gt;" class="s12" d="m143.3 172.5l25.7-14.9 35.1 5.5 9.4 20.2-25.7 14.8-35.1-5.4z"/>
					<path id="&lt;Path&gt;" class="s2" d="m144 172.1l9 19.4 35.1 5.5 25-14.5 0.4 0.8-25.7 14.8-35.1-5.4-9.4-20.2z"/>
					<path id="&lt;Path&gt;" class="s13" d="m152.7 192.7v92.7l35.1 5.4v-92.7z"/>
					<path id="&lt;Path&gt;" class="s14" d="m143.3 172.5v92.7l9.4 20.2v-92.7z"/>
					<path id="&lt;Path&gt;" class="s15" d="m213.5 183.3v92.7l-25.7 14.8v-92.7z"/>
				</g>
				<g id="&lt;Group&gt;">
					<path id="&lt;Path&gt;" class="s16" d="m210.1 231.3l-11.5-15.6 9.4 102.3 35 5.4 25.7-96.8z"/>
					<path id="&lt;Path&gt;" class="s17" d="m198.6 215.7l25.6-14.8 35.1 5.4 9.4 20.3-25.7 14.8-35-5.4z"/>
					<path id="&lt;Path&gt;" class="s2" d="m199.2 215.3l9.1 19.5 35.1 5.4 25-14.4 0.3 0.8-25.7 14.8-35-5.4-9.4-20.3z"/>
					<path id="&lt;Path&gt;" class="s18" d="m208 236v82l35 5.4v-82z"/>
					<path id="&lt;Path&gt;" class="s19" d="m198.6 215.7v82l9.4 20.3v-82z"/>
					<path id="&lt;Path&gt;" class="s20" d="m268.7 226.6v82l-25.7 14.8v-82z"/>
				</g>
				<g id="&lt;Group&gt;">
					<path id="&lt;Path&gt;" class="s21" d="m265.3 284.1l-11.5-15.6 9.4 82 35.1 5.4 25.7-76.5z"/>
					<path id="&lt;Path&gt;" class="s22" d="m253.8 268.5l25.7-14.8 35.1 5.4 9.4 20.3-25.7 14.8-35.1-5.4z"/>
					<path id="&lt;Path&gt;" class="s2" d="m254.5 268.1l9 19.5 35.1 5.4 25-14.4 0.4 0.8-25.7 14.8-35.1-5.4-9.4-20.3z"/>
					<path id="&lt;Path&gt;" class="s23" d="m263.2 288.8v61.7l35.1 5.4v-61.7z"/>
					<path id="&lt;Path&gt;" class="s24" d="m253.8 268.5v61.8l9.4 20.2v-61.7z"/>
					<path id="&lt;Path&gt;" class="s25" d="m324 279.4v61.7l-25.7 14.8v-61.7z"/>
				</g>
			</g>
			<g id="&lt;Group&gt;">
				<g id="&lt;Group&gt;">
					<path id="&lt;Path&gt;" class="s26" d="m44.3 35.6l-11.5-15.6 9.4 139 35.1 5.5 25.7-133.6z"/>
					<path id="&lt;Path&gt;" class="s27" d="m32.8 20l25.7-14.8 35.1 5.4 9.4 20.3-25.7 14.8-35.1-5.4z"/>
					<path id="&lt;Path&gt;" class="s2" d="m33.5 19.6l9 19.5 35.1 5.4 25-14.4 0.4 0.8-25.7 14.8-35.1-5.4-9.4-20.3z"/>
					<path id="&lt;Path&gt;" class="s28" d="m42.2 40.3v118.7l35.1 5.5v-118.8z"/>
					<path id="&lt;Path&gt;" class="s29" d="m32.8 20v118.8l9.4 20.2v-118.7z"/>
					<path id="&lt;Path&gt;" class="s30" d="m103 30.9v118.7l-25.7 14.9v-118.8z"/>
				</g>
				<g id="&lt;Group&gt;">
					<path id="&lt;Path&gt;" class="s31" d="m99.6 92.3l-11.6-15.6 9.4 114.9 35.1 5.4 25.7-109.5z"/>
					<path id="&lt;Path&gt;" class="s32" d="m88 76.7l25.7-14.8 35.1 5.4 9.4 20.2-25.7 14.9-35.1-5.5z"/>
					<path id="&lt;Path&gt;" class="s2" d="m88.7 76.3l9.1 19.5 35.1 5.4 25-14.4 0.3 0.7-25.7 14.9-35.1-5.5-9.4-20.2z"/>
					<path id="&lt;Path&gt;" class="s33" d="m97.4 96.9v94.7l35.1 5.4v-94.6z"/>
					<path id="&lt;Path&gt;" class="s34" d="m88 76.7v94.6l9.4 20.3v-94.7z"/>
					<path id="&lt;Path&gt;" class="s35" d="m158.2 87.5v94.7l-25.7 14.8v-94.6z"/>
				</g>
				<g id="&lt;Group&gt;">
					<path id="&lt;Path&gt;" class="s36" d="m154.8 152.4l-11.5-15.6 9.4 87.3 35.1 5.4 25.7-81.8z"/>
					<path id="&lt;Path&gt;" class="s37" d="m143.3 136.8l25.7-14.8 35.1 5.4 9.4 20.3-25.7 14.8-35.1-5.4z"/>
					<path id="&lt;Path&gt;" class="s2" d="m144 136.4l9 19.5 35.1 5.5 25-14.5 0.4 0.8-25.7 14.8-35.1-5.4-9.4-20.3z"/>
					<path id="&lt;Path&gt;" class="s38" d="m152.7 157.1v67l35.1 5.4v-67z"/>
					<path id="&lt;Path&gt;" class="s39" d="m143.3 136.8v67.1l9.4 20.2v-67z"/>
					<path id="&lt;Path&gt;" class="s40" d="m213.5 147.7v67l-25.7 14.8v-67z"/>
				</g>
				<g id="&lt;Group&gt;">
					<path id="&lt;Path&gt;" class="s41" d="m210.1 195.7l-11.5-15.6 9.4 76.6 35 5.4 25.7-71.1z"/>
					<path id="&lt;Path&gt;" class="s42" d="m198.6 180.1l25.6-14.8 35.1 5.4 9.4 20.3-25.7 14.8-35-5.4z"/>
					<path id="&lt;Path&gt;" class="s43" d="m210.1 181.9l17.2-10 23.6 3.7 6.3 13.6-17.3 9.9-23.5-3.6z"/>
					<path id="&lt;Path&gt;" class="s2" d="m199.2 179.7l9.1 19.5 35.1 5.4 25-14.4 0.3 0.8-25.7 14.8-35-5.4-9.4-20.3z"/>
					<path id="&lt;Path&gt;" class="s44" d="m208 200.4v56.3l35 5.4v-56.3z"/>
					<path id="&lt;Path&gt;" class="s45" d="m198.6 180.1v56.3l9.4 20.3v-56.3z"/>
					<path id="&lt;Path&gt;" class="s46" d="m268.7 191v56.3l-25.7 14.8v-56.3z"/>
				</g>
				<g id="&lt;Group&gt;">
					<path id="&lt;Path&gt;" class="s47" d="m210.1 163l-11.5-15.6 9.4 34.8 35 5.4 25.7-29.4z"/>
					<path id="&lt;Path&gt;" class="s48" d="m198.6 147.4l25.6-14.8 35.1 5.4 9.4 20.2-25.7 14.9-35-5.5z"/>
					<path id="&lt;Path&gt;" class="s2" d="m199.2 147l9.1 19.5 35.1 5.4 25-14.4 0.3 0.7-25.7 14.9-35-5.5-9.4-20.2z"/>
					<path id="&lt;Path&gt;" class="s49" d="m208 167.6v14.6l35 5.4v-14.5z"/>
					<path id="&lt;Path&gt;" class="s50" d="m198.6 147.4v14.5l9.4 20.3v-14.6z"/>
					<path id="&lt;Path&gt;" class="s51" d="m268.7 158.2v14.6l-25.7 14.8v-14.5z"/>
				</g>
				<g id="&lt;Group&gt;">
					<path id="&lt;Path&gt;" class="s52" d="m265.3 248.5l-11.5-15.6 9.4 56.3 35.1 5.4 25.7-50.8z"/>
					<path id="&lt;Path&gt;" class="s53" d="m253.8 232.9l25.7-14.8 35.1 5.4 9.4 20.3-25.7 14.8-35.1-5.4z"/>
					<path id="&lt;Path&gt;" class="s2" d="m254.5 232.5l9 19.5 35.1 5.4 25-14.4 0.4 0.8-25.7 14.8-35.1-5.4-9.4-20.3z"/>
					<path id="&lt;Path&gt;" class="s54" d="m263.2 253.2v36l35.1 5.4v-36z"/>
					<path id="&lt;Path&gt;" class="s55" d="m253.8 232.9v36.1l9.4 20.2v-36z"/>
					<path id="&lt;Path&gt;" class="s56" d="m324 243.8v36l-25.7 14.8v-36z"/>
				</g>
			</g>
		</g>
		<g id="&lt;Group&gt;">
			<g id="&lt;Group&gt;" style="opacity: .3">
				<g id="&lt;Group&gt;">
					<path id="&lt;Path&gt;" class="s57" d="m100.8 357l-87.3-50.7c-1.3-0.7-1.1-1.9 0.3-2.7l58.4-33.8c1.4-0.8 3.5-0.9 4.7-0.2l87.4 50.8c1.2 0.7 1 1.9-0.4 2.7l-58.4 33.7c-1.4 0.8-3.5 0.9-4.7 0.2z"/>
				</g>
				<path id="&lt;Path&gt;" class="s58" d="m167.2 309.6l-20.5-1.3-69.9-40.7c-1.3-0.7-3.4-0.6-4.9 0.2l-45.2 26.1-16.2-1.1v11.3c0 0.5 0.3 0.9 0.9 1.3l89.6 52c1.2 0.7 3.4 0.6 4.8-0.2l60.2-34.8c0.8-0.4 1.2-1 1.2-1.5z"/>
				<path id="&lt;Path&gt;" class="s59" d="m101 346l-89.6-52c-1.3-0.7-1.1-2 0.3-2.8l60.2-34.8c1.5-0.8 3.6-0.9 4.9-0.2l89.6 52c1.2 0.8 1.1 2-0.4 2.8l-60.2 34.8c-1.4 0.8-3.6 0.9-4.8 0.2z"/>
			</g>
			<g id="&lt;Group&gt;">
				<g id="&lt;Group&gt;">
					<path id="&lt;Path&gt;" class="s60" d="m100.8 324.6l-87.3-50.7c-1.3-0.7-1.1-1.9 0.3-2.7l58.4-33.8c1.4-0.8 3.5-0.9 4.7-0.2l87.4 50.8c1.2 0.6 1 1.9-0.4 2.7l-58.4 33.7c-1.4 0.8-3.5 0.9-4.7 0.2z"/>
				</g>
				<path id="&lt;Path&gt;" class="s61" d="m167.2 277.2l-20.5-1.4-69.9-40.6c-1.3-0.7-3.4-0.6-4.9 0.2l-45.2 26.1-16.2-1.1v11.3c0 0.5 0.3 0.9 0.9 1.2l89.6 52.1c1.2 0.7 3.4 0.6 4.8-0.2l60.2-34.8c0.8-0.4 1.2-1 1.2-1.5z"/>
				<path id="&lt;Path&gt;" class="s62" d="m101 313.6l-89.6-52c-1.3-0.8-1.1-2 0.3-2.8l60.2-34.8c1.5-0.8 3.6-0.9 4.9-0.2l89.6 52c1.2 0.7 1.1 2-0.4 2.8l-60.2 34.8c-1.4 0.8-3.6 0.9-4.8 0.2z"/>
			</g>
			<g id="&lt;Group&gt;">
				<g id="&lt;Group&gt;">
					<path id="&lt;Path&gt;" class="s63" d="m86.1 248.6l0.1 0.4 0.1-0.2c0 0 0.6 2 0.1 3-0.5 1-1.2 2.3-2.3 3.7-1.1 1.4-2.8 4.3-3.3 4.9-0.4 0.6-3 2.8-6.3 3.1-3.3 0.3-4.1-1.5-3.9-2.6 0.3-1 2.1-3.7 4-5.9 1.9-2.2 3.4-5 3.4-5z"/>
					<path id="&lt;Path&gt;" class="s63" d="m76.3 239.7c0 0 0.1 2.1-0.1 3-0.3 0.9-5.1 1.1-6.8 1.4-1.7 0.2-4.7 1.4-5.6 1.9-1 0.4-7.2 1.1-8-1.2-0.8-2.3 3.1-4.3 5.8-4.9 2.6-0.6 7-1.9 7-1.9z"/>
					<path id="&lt;Path&gt;" class="s64" d="m93 198c0 0 0.2 5.9-1.8 14.1-2 8.1-1.7 13.8-1.7 13.8 0 0 2 9.3 0.2 15.6-1.8 6.2-3.3 8-3.3 8 0 0-3.7 4.8-8.4 0.5 0 0 2.7-8.6 3-15.5 0 0-2.4-5.1-3.2-9.6 0 0-0.7 7.2-1.1 10.1 0 0 0.4 4.2-0.7 6-1.1 1.7-6.3 2.2-7.9-0.8-1.6-3 1.4-1.5 0.5-15.3 0 0-4.7-5.9-5.4-16.7-0.7-10.8-0.6-15 0-17.1 0.6-2.2 11-9.7 11-9.7l5.9 7.5z"/>
					<path id="&lt;Path&gt;" class="s63" d="m69.8 210.1c-1.7-2.1-2.7-8.4-2.7-8.4 0 0 2.7 5.3 4.6 6.9 1.9 1.5 3.5 4.7 3.8 6.7 0.4 2 2.3 9.6 2.3 9.6 0 0-0.7 7.2-1.1 10.1 0 0 0.4 4.2-0.7 6-0.2 0.3-0.6 0.6-1.1 0.8 0-0.1 0.3-9.5 0-13.5-0.3-4-3.4-16.2-5.1-18.2z"/>
					<path id="&lt;Path&gt;" class="s65" d="m108.7 154.5c0 0 4.5 8.8 4.9 9.4 0.5 0.7 8.9 11.4 9.7 17.6 0 0 0.6 2.4-2.3 4.6-2.8 2.1-17.5 11.4-18.4 11.5-0.9 0.2-6.2-2.4-6.4-8.2 0 0 11.4-5.4 13.9-8 0 0-4.4-7.5-6.6-9.7-0.6-0.6-0.9-1.6-1.1-2.8-0.7-4.9 1.3-9.9 4.9-13.2z"/>
					<path id="&lt;Path&gt;" class="s64" d="m75 133.9c0 0-6.9 2.5-9.3 1.7-2.4-0.9-8.2-1.7-12.2-3.9-4-2.2-21.5-6.8-24.1-6.9 0 0-0.1 0.1 0.3 0.3 0.5 0.1 2.3 0.3 2.8 2.3 0.5 2.1-0.6 4.5-0.9 4.7-0.3 0.2-0.5-0.6-2.2-1.3-1.6-0.8-2.7-0.8-2.7-0.8l-0.6 0.8-0.4 0.6c0 0 0.8 2.5 3.1 2.7 2.2 0.1 16.6 6.1 17.5 6.4 0.9 0.3 13 5.5 15.3 6.3 2.3 0.8 4 1.9 4 1.9 0 0 7.1-4.7 7.3-4.7 0.2 0 2.1-10.1 2.1-10.1z"/>
					<path id="&lt;Compound Path&gt;" fill-rule="evenodd" class="s66" d="m11.5 120.3c0.6-0.6 7.1 1.3 7.1 1.3 0 0 1.2-0.4 2.2-0.3 1.1 0 4.1 2.3 5.1 2.8 1.1 0.5 3.5 0.7 3.5 0.7 5.8 1.2 2.5 7.5 2.3 7.5-0.3-0.1-1.8-1.2-2.3-1.5-0.5-0.2-1.4-0.4-1.4-0.4-0.3 0.2-1.5 0.8-2.3 1-0.8 0.3-2.8 0-3.6-0.6-0.9-0.5-3.5-0.8-3.6-0.7-0.1 0.1-0.5 0.3-0.5 0.3 0 0-0.2 0.7-0.7 0.8-0.5 0.2-1.1-1.1-1.3-1.2-0.3-0.2-1-0.7-1.1-0.9-0.2-0.2-0.6-3.9-0.5-4.6 0.2-0.6 1.6-1.4 1.6-1.4 0 0-3.6-1.2-3.9-1.3-0.3 0-1.1-0.9-0.6-1.5zm6.5 6.8c0.3 0.1 0.8 0.1 1.3 0.3 0.4 0.2 1 0.5 1.5 0.4 0 0 0.7-1.1 0.2-1.5-0.5-0.3-0.9-0.7-0.9-0.7 0 0-0.9-0.1-0.9-0.3 0 0-0.5 0.4-1 0.1 0 0-0.6 0.8-1.4 0.8 0 0 0.9 0.7 1.2 0.9z"/>
					<path id="&lt;Path&gt;" class="s63" d="m63.2 191.1c0.6-2.2 11-9.7 11-9.7l3 3.7 2.5 9.8 13.3 4.1c0 0-0.7 6.7-11.6 5.9-10.8-0.8-12.1-9.2-12.1-9.2 0 0-1.2 2.8-6.6 3.5-0.1-4.5 0.1-6.8 0.5-8.1z"/>
					<path id="&lt;Path&gt;" class="s67" d="m95.5 139.3l1.8 4.8c0 0 8.8 7.6 11.4 10.4 0 0-4.4 8.3-5.2 17.2 0 0-4.1 3.3-5.3 4.8-1.2 1.5-4.3 8.5-5.3 10.8-1 2.3 1.8 9.3 1.8 9.3 0 0-3.8 6.9-9.8 6.7-6.1-0.2-10.2-3.9-10.9-10.5-0.8-6.5-0.6-7.5-0.6-7.5 0 0-2.7 8.1-6.8 8.1-4.1 0-10.7-7-10.7-7 0 0-4.4-4-4-5.8 0.4-1.9 10.4-17.5 10.9-20.1 0.6-2.6 2.8-11.8 2.8-11.8l9.4-14.8 5.8 0.2z"/>
					<g id="&lt;Group&gt;">
						<path id="&lt;Path&gt;" class="s68" d="m84.6 201.6c-5.7-0.2-9.7-3.6-10.7-9.6q0 0.4 0.1 0.8c0.7 6.6 4.8 10.3 10.9 10.5 6 0.2 9.8-6.7 9.8-6.7 0 0-0.2-0.5-0.5-1.3-0.8 1.4-4.4 6.5-9.6 6.3z"/>
					</g>
					<path id="&lt;Path&gt;" class="s69" d="m95.5 139.3c0 0 0 2.9-1.1 5.6-1.1 2.8-4.7 18.5-13 23.9l-3.1 2v-10c0 0 0-6.2 1.5-10 1.4-3.9 1.3-8.7 1.3-8.7 0 0 2.3-0.6 2.3-0.6 0 0.1 12.1-2.2 12.1-2.2z"/>
					<path id="&lt;Path&gt;" class="s66" d="m85.3 146.6c0 0-1.4 0.6-2.1-0.3-0.6-1-1.2-2.9-1.1-3.8 0 0-3.8 0.2-4.6-1.8-0.8-2.1 0.1-2.6 0.2-3.2 0.1-0.7 0.2-2.3 0.7-3.5l0.1-0.6c0 0-0.8-0.6-0.4-1.3 0.3-0.8 2.5-3 2.7-3.4 0.2-0.3-0.1-3.1 0.7-4.4 0.9-1.4 2.5-3.3 2.5-3.3 0 0 8.2-6.5 14.8 0 6.5 6.4-3.3 18.3-3.3 18.3 0 0-0.8 3.9-2.7 5.4-1.9 1.5-7.5 1.9-7.5 1.9z"/>
					<path id="&lt;Path&gt;" class="s70" d="m91.4 130.9q0-0.4 0.1-0.7c0.2-0.7 0.7-2.6-1.3-4.1-2.5-1.8-6.9-3.4-6.8-5.2 0.2-1.8 7.1-6.3 12.2-3.9 5.1 2.4 9.9 8.4 6.4 14.9-3.5 6.4-6.5 7.4-6.5 7.4 0 0-1.1-0.2-0.1-1.2 0.9-1.1 2.6-3.8 1.2-4.7-1.4-0.8-3.9 1-4.2 1.4q-0.2 0.3-0.4 0.6c-0.1 0.3-0.5 0.4-0.8 0.2h-0.2c-0.3-0.2-0.4-0.5-0.3-0.9l0.6-1.6q0.1-0.4 0.1-0.8z"/>
					<path id="&lt;Path&gt;" class="s71" d="m85.5 148.4c0 0 1.9 1.4 3 3.9 0 0-2-2.1-3.1-2.5 0 0-2.2 1-2.2 1.7 0 0.7-0.2 4.8-0.7 7-0.5 2.2-0.4 9.9-0.4 9.9l-1.4 0.9-0.7-3.4 0.3-7.2 1.3-6.6c0 0 0.2-2.4 0.3-2.6 0.1-0.1 3.6-1.1 3.6-1.1z"/>
					<path id="&lt;Path&gt;" class="s64" d="m85.5 148.4c0 0-2.1-2.2-3.1-2.2-1.1-0.1-1.7 0.5-1.7 0.6 0 0.1-1 3.7-1 3.7 0 0-2 6.1-1.8 13.2 0.2 7.1 0.4 7.1 0.4 7.1l2.6-1.7c0 0-0.7-5.1 0.7-11 1.4-5.9 0.2-6.8 0.9-7.4 0.6-0.6 3.4-1.5 3-2.3z"/>
					<path id="&lt;Path&gt;" class="s64" d="m98.2 176.5c-1.2 1.5-4.2 8.5-5.2 10.8-0.2 0.4-0.3 0.9-0.3 1.5-0.2 0.1-0.4 0.2-0.4 0.2l-1.3-1.3c0 0 1.2-4.3 3.1-9.5 1.9-5.3 9.4-6.5 9.4-6.5 0 0-4.1 3.3-5.3 4.8z"/>
					<path id="&lt;Path&gt;" class="s66" d="m96.2 189.6c0 0-2.2-3.2-2.8-3.6 0 0 0.1 0.9-1.1 1.5-1.2 0.5-7.6 3-7.8 3.3-0.3 0.3 0 0.6 0.4 0.7 0 0-1.3 0.4-1.9 0.4-0.5 0-1.3 0.7-0.9 1.3 0.4 0.6 0.7 0.5 0.7 0.5 0 0-0.2 0.7 0.2 0.9 0.4 0.1 1.4 0.1 1.4 0.1 0 0-0.2 0.7 0.3 0.9 0.5 0.3 3.1 0.6 3.1 0.6 0 0 2-0.2 2.6-0.2 0.6-0.1 3.2 0.6 4.4 0.4 1.1-0.1 4.8-1.4 5.2-1.7 0.3-0.2-3.8-5.1-3.8-5.1z"/>
					<path id="&lt;Path&gt;" class="s64" d="m97.7 145.6l-0.3 4.2-2.2 0.7 1.5 1.3c0 0-6.2 14-14.1 18.4 0 0 7.6-2.6 14.7-18.3 0 0-0.8-0.9-1-1.1l1.6-0.7z"/>
					<path id="&lt;Path&gt;" class="s64" d="m77.6 145.1c0 0-2.8 14.3-0.4 25.1 0 0-2.9-5.2-0.3-25.1z"/>
					<path id="&lt;Path&gt;" class="s72" d="m14.6 124.2c0.4-0.5 1.4-1.1 1.4-1.1 0 0 3 1.2 3.5 1.5 0 0-3-0.3-4.9-0.4z"/>
					<path id="&lt;Path&gt;" class="s72" d="m31.7 132.3c-0.1-0.1-0.6-0.4-1.1-0.7 2-2.7-0.2-6.5-0.2-6.5 4.4 1.7 1.5 7.2 1.3 7.2z"/>
					<path id="&lt;Path&gt;" class="s72" d="m100 194.7c-0.3 0.2-2.4 1-4 1.4 0 0-0.9-3.9-0.7-5.1 0.2-1.3 0.7-1.6 0.7-1.6q0.2 0.2 0.2 0.2c0 0 4.1 4.9 3.8 5.1z"/>
					<path id="&lt;Path&gt;" class="s65" d="m96.2 189.4c0 0-0.7 2.2 0.8 3.9 1.5 1.8 1.7 2 1.7 2h1.8c0 0 0.9-2.7 0.7-2.8-0.1-0.1-5-3.1-5-3.1z"/>
					<path id="&lt;Path&gt;" class="s64" d="m80 149.3c0 0-1.6 9.8-1.3 13.4 0.4 3.6 0.3 7.5 0.3 7.5l-0.6 0.5-0.1 0.1c0 0-0.2 0-0.4-7.1-0.2-7.1 1.8-13.2 1.8-13.2 0 0 0.1-0.5 0.3-1.2z"/>
					<g id="&lt;Group&gt;">
						<path id="&lt;Path&gt;" class="s63" d="m79.5 251.1q-0.7-0.4-1.5-1.1c0 0 2.7-8.6 3-15.5 0 0-2.4-5.1-3.2-9.6 0.2 0.9 3 5.8 4.2 10.7 1.2 5-2.5 15.5-2.5 15.5z"/>
					</g>
					<g id="&lt;Group&gt;">
						<path id="&lt;Path&gt;" class="s72" d="m91.6 137.8q0-0.1 0-0.1 0 0 0 0.1z"/>
						<path id="&lt;Path&gt;" class="s72" d="m91.6 137.8c0 0.2-0.7 3.7-2.1 5.3-1.5 1.7-2.6 3.4-2.6 3.4-0.9 0.1-1.6 0.1-1.6 0.1 0 0-1.4 0.6-2.1-0.3-0.6-1-1.2-2.9-1.1-3.8 0 0 5.3-0.5 7.3-1.9 1.9-1.3 2.2-2.7 2.2-2.8z"/>
					</g>
					<path id="&lt;Path&gt;" class="s73" d="m93.5 186.1c0 0-0.3 0.6-0.3 0.6-0.1 0.1-0.1-0.5-0.1-0.5 0 0 0.2-0.4 0.2-0.4 0 0 0.2 0.3 0.2 0.3z"/>
					<path id="&lt;Path&gt;" class="s64" d="m78.3 170.8c0 0-3.7 11.7-4.9 14.5l0.1 2.8c0 0 4.6-14.5 4.8-17.3z"/>
					<path id="&lt;Path&gt;" class="s64" d="m74.8 174.9c-0.3 0.7 0.1 1.4 0.7 1.6 0.7 0.2 1.3-0.2 1.5-0.9 0.3-0.6-0.1-1.3-0.7-1.5-0.7-0.2-1.3 0.2-1.5 0.8z"/>
					<path id="&lt;Path&gt;" class="s64" d="m72.9 180c-0.2 0.7 0.1 1.4 0.8 1.6 0.6 0.2 1.3-0.2 1.5-0.9 0.2-0.7-0.1-1.4-0.8-1.6-0.6-0.2-1.3 0.2-1.5 0.9z"/>
				</g>
				<path id="&lt;Path&gt;" class="s74" d="m91.3 133.1q0.1-0.4 0.1-0.8v-1.4q0-0.4 0.1-0.7c0.1-0.2 0.2-0.5 0.2-0.9 0 0 5.7 4.2 9.3 4.3-3 4.9-5.5 5.7-5.5 5.7 0 0-1.1-0.2-0.1-1.2 0.9-1.1 2.6-3.8 1.2-4.7-1.4-0.8-3.9 1-4.2 1.4q-0.2 0.3-0.4 0.6c-0.1 0.3-0.5 0.4-0.8 0.2h-0.2c-0.3-0.2-0.4-0.5-0.3-0.9z"/>
			</g>
			<g id="&lt;Group&gt;">
				<g id="&lt;Group&gt;">
					<path id="&lt;Path&gt;" class="s63" d="m100.1 294.2c0 0-2.4 0.3-4.8 0.2-2.3-0.1-8.8 0.4-8.7 2.4 0 2 3 5.1 7.1 5.9 4.1 0.8 9.5 0.2 12.1 0.5 2.7 0.3 4.8-1.8 4-4.1-0.8-2.3-9.7-4.9-9.7-4.9z"/>
					<path id="&lt;Path&gt;" class="s63" d="m114.8 290.1c0 0 0.7 1.3 0.2 2-0.5 0.7-1.9 2.4-5.5 0.3-3.7-2.1-10.8-5.3-10.8-5.3 0 0-4-2.3-3.6-4.6 0.4-2.2 4.3-1.6 4.3-1.6z"/>
					<path id="&lt;Path&gt;" class="s64" d="m92.5 254.5c0 0 0.4 15.8 3.5 21.9 3 6.1 3.1 16.5 3.6 18.5 0.6 2 2.5 5 6 5.9 3.5 0.8 4.3-1.1 4.2-2.3 0-1.3-0.8-3.3-0.6-4.6 0.1-1.4 0.5-2 0.6-2.6 0 0 4 1.4 5-1.2 0 0-0.3-0.8-0.3-1.2 0-0.4 1.5-10.4 1.8-11.6 0.2-1.2 0.2-7.9-0.6-11.4-0.8-3.4 0.4-10.6 0.4-10.6l-12.1-2.6z"/>
					<path id="&lt;Path&gt;" class="s75" d="m115.7 265.9c-0.8-3.4 0.4-10.6 0.4-10.6l-1.1-0.3c-0.1 1-1.1 7.4-0.3 10.5 0.8 3.5 0.8 10.2 0.5 11.5-0.2 1.2-1.7 11.1-1.7 11.5 0 0.4 0.2 1.2 0.2 1.2-0.9 2.6-4.9 1.3-4.9 1.3-0.1 0.6-0.6 1.2-0.7 2.5-0.1 1.3 0.7 3.4 0.7 4.6 0.1 1.2-0.7 3.2-4.2 2.3q-0.2-0.1-0.3-0.1 0.6 0.3 1.3 0.5c3.5 0.8 4.3-1.1 4.2-2.3 0-1.3-0.8-3.3-0.6-4.6 0.1-1.4 0.5-2.1 0.7-2.7 0 0 3.9 1.5 4.9-1.1 0 0-0.3-0.8-0.3-1.2 0-0.4 1.5-10.4 1.8-11.6 0.2-1.2 0.2-7.9-0.6-11.4z"/>
					<path id="&lt;Path&gt;" class="s63" d="m112.3 256.1c0 0-0.3 2.5-1.7 4.5 0 0-0.8 8.3-2.2 12.3 0 0 0.7 8.3 1.4 10.9 0.7 2.7 0 7.5 0 7.5 0 0 0.5 0.2 1.2 0.3 0.6 0.1 1.7-9.7 0.9-11.5-0.9-1.8-0.8-9.8-0.2-12.1 0.7-2.4 1.3-9.5 2-10.7 0.6-1.2-0.5-2-0.5-2z"/>
					<path id="&lt;Path&gt;" class="s63" d="m107.8 192.5c0 0-4.1 2.3-4.4 7l2.9-0.4c0 0-0.3-5.1 1.5-6.6z"/>
					<path id="&lt;Path&gt;" class="s63" d="m103.1 258.8c8 0.9 12.8-1.9 12.8-1.9 0.1-1 0.2-1.6 0.2-1.6l-12.1-2.6-11.5 1.8c0 0 0.1 3.1 0.5 7.2 1.9 0.4 4.2-3.8 4.2-3.8l5.5 0.8c0 0-7.7-0.8 0.4 0.1z"/>
					<path id="&lt;Path&gt;" class="s67" d="m94.1 254.8c0 0 16.9 7.9 26.8-3.4 0.3-0.4 0.5-0.8 0.5-1.2l0.2-2.9q0.1-0.6 0.3-1.1c0.4-0.7 0.6-1.5 0.5-2.3-0.3-3.3-1.1-12.6-1.2-15.2-0.2-3.2 3.1-15.9 6.9-21.3 3.7-5.4-2.8-19.2-2.8-19.2 0 0-1.6-3.3-5.6-2.6 0 0 3.4 2.8 1.1 5.3-2.3 2.5-8.6 4.1-8.6 4.1 0 0-11.6 4.5-15.9 10.8 0 0-1.6 3.3-2 7.6-0.5 4.2-0.7 14.4-1 15.7-0.3 1.4-1.6 10.6-1.6 11.1 0 0.4 2.4 14.6 2.4 14.6z"/>
					<g id="&lt;Group&gt;">
						<path id="&lt;Path&gt;" class="s76" d="m121.3 187.7c0.4-0.7 0.4-1.5 0.1-2.1-0.5-0.1-1.1-0.1-1.7 0 0 0 1 0.9 1.6 2.1z"/>
						<path id="&lt;Path&gt;" class="s64" d="m99.3 256.6c0 0 13-24.8 13.5-34.6 0.5-9.8-17.4 17.7-17.4 17.7l-1.3 15.1c0 0 3.2 1.4 5.2 1.8z"/>
						<path id="&lt;Path&gt;" class="s77" d="m121.9 243.7q-0.2 0.5-0.3 1l-0.2 2.9c0 0.5-0.2 0.9-0.5 1.2-9.8 11.4-26.8 3.5-26.8 3.5 0 0-1.7-10.2-2.2-13.6-0.1 0.8-0.2 1.4-0.2 1.5 0 0.4 2.4 14.6 2.4 14.6 0 0 17 7.9 26.8-3.4 0.3-0.4 0.5-0.8 0.5-1.2l0.2-2.9q0.1-0.6 0.3-1.1c0.4-0.7 0.6-1.5 0.5-2.3q-0.1-0.5-0.1-1.2-0.1 0.5-0.4 1z"/>
						<path id="&lt;Path&gt;" class="s78" d="m128.1 204.9c-3.8 5.4-7.1 18.1-6.9 21.3q0 0.4 0 1.1c0.5-4.5 3.5-15.1 6.9-19.9 1-1.5 1.2-3.7 1.1-6-0.2 1.3-0.5 2.5-1.1 3.5z"/>
					</g>
					<path id="&lt;Path&gt;" class="s65" d="m96.2 225.5q0.8-3.3 1.1-6.6c0.4-3.9 2.1-10.4 9.7-8.6 10.7 2.6 4.6 16.2 3.2 18.5-1.4 2.2-7 12.4-7.2 13-0.3 0.6-8.6 12.7-11.3 15.5-0.3 0.3-0.7 0.3-0.9 0-1-0.8-3.2-2.9-3.4-4.1-0.3-1.5 1.6-6.9 1.6-6.9 0 0 5.2-13.8 5.6-14.4 0.3-0.5 0.6-2.9 1.6-6.4z"/>
					<path id="&lt;Path&gt;" class="s66" d="m107.9 192.9c0 0-0.7-2.1-2.7-2.4-2-0.4-3.1-1.1-3.3-1.8-0.1-0.8-0.1-1.7-0.5-2.8-0.4-1.1-0.6-3.9-0.6-3.9 0-0.1-1.5-0.7-1.5-1.4 0-0.7 1-3 0.9-3.2-0.1-0.2-0.8-1.8-0.6-2.9 0.2-1.2 0.5-2.9 1.3-4.2 0.7-1.4 5.9-9.9 17.1-4.3 11.2 5.6 1.3 14.4 1.8 20.6 0 0 0.9 1.3-1.2 3.3-2.1 2-7.5 2-10.7 3z"/>
					<path id="&lt;Path&gt;" class="s72" d="m118.6 189.9c2.1-2 1.2-3.3 1.2-3.3 0-0.9 0.1-1.8 0.3-2.7l-4.5 0.4c0 0-6.1-6.3-5.9-3.2 0.1 3.2-1.5 3.6-1.5 3.6l1.2 1.8c0.3 0.4 0 0.9-0.3 1.3-2.1 3-6.6 1.7-6.6 1.7q0.8 0.6 2.7 1c2 0.3 2.7 2.4 2.7 2.4 3.2-1 8.6-1 10.7-3z"/>
					<g id="&lt;Group&gt;">
						<path id="&lt;Path&gt;" class="s70" d="m100.6 166.9c0 0-1 2.3 0.3 3.4 1.2 1.1 2.3 2.1 2.3 2.1l-0.3 2.9q0 0.7 0.3 1.3l1.4 2.6c0.3 0.5 0.4 1 0.4 1.6l-0.1 1.2c-0.1 0.3 0.2 0.6 0.5 0.7l0.4 0.1c0.4 0.1 0.8-0.2 0.8-0.5l0.4-1.7c0 0 0.9-1.2 2.7 0.5l1.6 0.8c0.4 0.3 0.8 0.7 0.9 1.2 0.3 1.3 1.1 3.8 1.8 4.3 1 0.6 5.1-1 5.7-1.8 0.6-0.8 2.5-6.6 3.7-9.3 1.1-2.8 1.4-9.9-7.1-12.5-8.4-2.6-14.3 0.6-15.7 3.1z"/>
						<path id="&lt;Path&gt;" class="s74" d="m119.7 185.6c0.6-0.8 2.5-6.6 3.7-9.3 0 0-3.5 1.8-7.9 2.1-4.3 0.3-12.4-5.2-12.4-5.2l-0.2 2.1q0 0.7 0.3 1.3l1.4 2.6c0.3 0.5 0.4 1 0.4 1.6l-0.1 1.2c-0.1 0.3 0.2 0.6 0.5 0.7l0.4 0.1c0.4 0.1 0.8-0.2 0.8-0.5l0.4-1.7c0 0 0.9-1.2 2.7 0.5l2.3 1.2c0 0 1 4.5 2 5.1 1 0.6 5.1-1 5.7-1.8z"/>
					</g>
					<path id="&lt;Path&gt;" class="s69" d="m119.8 185.9c0 0 3.1 2.2 1.2 4.8-2 2.7-14.2 6.5-14.8 7.2 0 0-0.1-4.2 1.6-5.4 0 0 9.1-0.9 10.8-3 1.6-2.1 1.2-3.6 1.2-3.6z"/>
					<path id="&lt;Path&gt;" class="s71" d="m119.8 185.9c0 0 0.4 1.5-1.2 3.6-1.3 1.6-6.8 2.5-9.5 2.8 0 0 0.9 0.6 2.3 3.4 3.8-1.5 8.4-3.4 9.6-5 1.9-2.6-1.2-4.8-1.2-4.8z"/>
					<path id="&lt;Path&gt;" class="s64" d="m121.1 194.9c0 0-5.6 2.4-8.2 3.5-2.7 1-5.6 2.5-5.6 2.5l-0.9-1-1.4 2.3c0 0-4.2 2-6.2 3.7-2 1.7-3.6 4-3.8 4.6 0 0 5.4-5.7 9.5-7.2l1.1-0.4 0.7-1.9 0.9 1c0 0 12.1-5.5 13.9-7.1z"/>
				</g>
				<g id="&lt;Group&gt;">
					<path id="&lt;Path&gt;" class="s79" d="m100.5 271c-0.1-0.4-0.3-0.8-0.5-1l-18.6-16.2c-0.5-0.5-1-0.2-1.2 0.5l-3.3 16.7c-0.1 0.8 0.1 1.7 0.6 2.2l15.3 13.3-0.9 4.5 4.9-1.4q0.3-0.1 0.5-0.7l3.3-16.7c0.1-0.4 0-0.8-0.1-1.2z"/>
					<path id="&lt;Path&gt;" class="s67" d="m75.9 255l4.8-1.4 0.1-0.1q0.3 0 0.6 0.3l18.6 16.2c0.2 0.2 0.4 0.6 0.5 1l-0.7 0.2-4.1 1.3-16.2-14.3z"/>
					<path id="&lt;Path&gt;" class="s64" d="m72.7 274.6l18.5 16.2c0.5 0.5 1.1 0.2 1.2-0.5l3.3-16.7c0.2-0.8-0.1-1.7-0.6-2.2l-18.6-16.2c-0.5-0.5-1-0.2-1.1 0.5l-3.4 16.7c-0.1 0.8 0.2 1.7 0.7 2.2z"/>
					<path id="&lt;Path&gt;" class="s63" d="m94.9 289.5l3.3-16.7c0.2-0.7-0.1-1.7-0.6-2.1l-18.6-16.3q-0.2-0.2-0.4-0.2 0.3-0.1 0.6 0.2l18.5 16.3c0.5 0.4 0.8 1.4 0.7 2.1l-3.3 16.7c-0.1 0.5-0.4 0.8-0.7 0.8 0.2-0.1 0.4-0.3 0.5-0.8z"/>
					<g id="&lt;Group&gt;">
						<g id="&lt;Group&gt;">
							<path id="&lt;Path&gt;" class="s63" d="m89.9 263.8l1-0.3q0.4-0.2 0.7-0.1h0.1q0.1 0.1 0.1 0.3l-0.1 0.2-2.9 1v-0.2c0-0.1 0.1-0.3 0.2-0.4l0.1-0.1q0.4-0.3 0.8-0.4z"/>
							<path id="&lt;Path&gt;" class="s63" d="m90.1 266l-1.3-1.1 2.9-1.4 1.3 1.1z"/>
							<path id="&lt;Path&gt;" class="s80" d="m91.2 265l1-0.4q0.4-0.1 0.7 0h0.1q0.1 0 0.1 0.2l-0.1 0.2-2.9 1v-0.1c0-0.2 0.1-0.3 0.2-0.4l0.1-0.1q0.4-0.3 0.8-0.4z"/>
							<path id="&lt;Path&gt;" class="s81" d="m91.7 265.4l0.2-0.7h-0.1l-0.1 0.8z"/>
							<path id="&lt;Path&gt;" class="s81" d="m91.9 264.7l-1.4-1.1 1.3 1.1z"/>
						</g>
						<g id="&lt;Group&gt;">
							<path id="&lt;Path&gt;" class="s63" d="m83.9 258.6l1.1-0.3q0.4-0.2 0.6-0.1l0.1 0.1q0.2 0 0.1 0.2v0.2l-3 1 0.1-0.2c0-0.1 0.1-0.3 0.2-0.4h0.1q0.4-0.3 0.7-0.5z"/>
							<path id="&lt;Path&gt;" class="s63" d="m84.1 260.8l-1.3-1.1 3-1.4 1.3 1.1z"/>
							<path id="&lt;Path&gt;" class="s82" d="m85.2 259.8l1.1-0.4q0.4-0.1 0.7 0 0.2 0 0.2 0.3l-0.1 0.1-3 1 0.1-0.1c0-0.2 0.1-0.3 0.2-0.4l0.1-0.1q0.4-0.3 0.7-0.4z"/>
							<path id="&lt;Path&gt;" class="s81" d="m85.8 260.3l0.2-0.8-0.1 0.1-0.2 0.7z"/>
							<path id="&lt;Path&gt;" class="s81" d="m86 259.5l-1.4-1.1h-0.1l1.4 1.2z"/>
						</g>
						<g id="&lt;Group&gt;">
							<path id="&lt;Path&gt;" class="s67" d="m92.7 261.2l-0.6 3.1-0.9-0.7 0.6-3.1c0.1-0.4-0.1-1-0.4-1.3l-3.8-3.3c-0.4-0.3-0.7-0.2-0.8 0.2l-0.6 3.1-0.9-0.8 0.6-3.1c0.2-1 1-1.3 1.8-0.6l4 3.6c0.8 0.6 1.2 1.9 1 2.9z"/>
							<path id="&lt;Path&gt;" class="s67" d="m86.2 255.5h1.6l4.5 4.4 0.1 2.4-0.3 2-1.1 0.4 0.2-2.5v-1.7l-0.9-1.4c0 0-1.7-1.4-1.7-1.4 0-0.1-2.4-2.2-2.4-2.2z"/>
							<path id="&lt;Path&gt;" class="s67" d="m85.1 259.5l1.1-0.3 0.4-2.3h-1-0.3z"/>
							<path id="&lt;Path&gt;" class="s67" d="m85.5 254.7l1.1-0.4c0 0-0.3 0.6-0.3 0.6 0 0-0.4 0.1-0.4 0.1 0 0-0.4-0.3-0.4-0.3z"/>
							<path id="&lt;Path&gt;" class="s63" d="m91.6 261.6l-0.6 3.1-0.9-0.7 0.6-3.1c0.1-0.4-0.1-1-0.4-1.3l-3.8-3.4c-0.4-0.3-0.7-0.1-0.8 0.3l-0.6 3-0.9-0.7 0.6-3.2c0.2-0.9 1-1.2 1.8-0.5l4 3.5c0.8 0.7 1.2 2 1 3z"/>
						</g>
					</g>
				</g>
				<path id="&lt;Path&gt;" class="s66" d="m87.7 253.1c0 0-0.9 3.1-0.7 3.9 0.1 0.8 1.7 2.5 2.7 2.9 1 0.3 0.6-0.8 0.9-1.4 0.3-0.7 0.4-2.2 0.4-2.2z"/>
				<path id="&lt;Path&gt;" class="s72" d="m91 256.3l-3.3-3.2c0 0-0.2 0.7-0.4 1.4 0 0.1 1.2 2.5 3.4 3.6 0.2-0.7 0.3-1.8 0.3-1.8z"/>
				<path id="&lt;Path&gt;" class="s65" d="m87.5 253.4c0 0 0.9 3.5 3.9 4l-0.7-3.8c0 0-2.5-0.8-2.6-0.9-0.1 0-0.6 0.7-0.6 0.7z"/>
				<path id="&lt;Path&gt;" class="s83" d="m111.5 213c2.2 8.7-6.5 20.9-7.8 24.5-1.4 3.6-13.7 19.1-13.7 19.2q0 0 0 0-0.1 0.1-0.1 0.1c0.2 0.2 0.5 0.4 0.7 0.5 0.3 0.1 0.1 0.1 0.5 0.2 0.2 0.1 0.4 0 0.6-0.2 2.7-2.8 11-14.9 11.3-15.5 0.2-0.6 5.8-10.8 7.2-13 1.2-1.9 5.3-11 1.3-15.8z"/>
			</g>
		</g>
	</g>
</svg>